<svg id="Layer_1" data-name="Layer 1" xmlns="http://www.w3.org/2000/svg" viewBox="0 0 216 48.2"><defs><style>.cls-1{fill:#58595b;}.cls-2{fill:#ff8200;}.cls-3{fill:#fff;}</style></defs><title>University - HorizLeftLogo (RGB)</title><path class="cls-1" d="M72,15.5a1.8,1.8,0,0,1,.6,1.3c.1.4.2.5.4.5s.3-.2.3-.5a2.3,2.3,0,0,0-.1-.7c0-.3-.1-.7-.1-1.3a2.2,2.2,0,0,0-.1-1l-1-.2H56.1a1,1,0,0,0-.7.2,2.2,2.2,0,0,0-.1.9,6.7,6.7,0,0,1-.3,1.8,5.4,5.4,0,0,0-.1,1.1c0,.3,0,.4.2.4s.3-.2.4-.6a3.8,3.8,0,0,1,.9-1.8,2.5,2.5,0,0,1,1.7-.4h4.6a1,1,0,0,1,.2.7V31a2.8,2.8,0,0,1-.4,1.8,2.6,2.6,0,0,1-1.5.6c-.4,0-.5.1-.5.3s.1.3.4.3h6.3c.3,0,.5-.1.5-.3s-.2-.3-.6-.4a2.1,2.1,0,0,1-1.9-2V16.2a1.4,1.4,0,0,1,.2-.9h4.9a3.2,3.2,0,0,1,1.7.3Zm8-.6a2.9,2.9,0,0,1,1.2-.2h2.3l3.2.2a1.4,1.4,0,0,1,1.1.9,2.9,2.9,0,0,1,.2.9v.4c0,.3.1.4.3.4l.3-.2a10.4,10.4,0,0,0,.1-1.1v-.8a8.4,8.4,0,0,1,.1-1.2c0-.2.1-.3.1-.4a.5.5,0,0,0-.5-.4h-7l-5.1-.2h-.9c-.5,0-.7.1-.7.4s.1.3.4.3,1.5.2,1.8.7a5.8,5.8,0,0,1,.5,2.8V31.1c0,1.2-.4,1.9-1.1,2.1h-.5c-.3.1-.4.2-.4.4s.1.3.4.3h.8l3.7-.2L85,34h1.2a4.3,4.3,0,0,0,3.3-1.5,4,4,0,0,0,1-2.3c0-.3-.1-.4-.2-.4a.5.5,0,0,0-.4.3c-1.1,1.7-3.6,2.6-7.4,2.6a5.3,5.3,0,0,1-2.3-.3c-.3-.2-.4-.8-.4-1.6V24.9a.6.6,0,0,1,.3-.6l.9-.2h3.3a3,3,0,0,1,1.8.4,1.7,1.7,0,0,1,.7,1.3v.4a.4.4,0,0,0,.4.4c.2,0,.3-.2.3-.4a.8.8,0,0,0-.1-.4c0-.6-.1-1.2-.1-1.8a24.6,24.6,0,0,1,.2-2.6V21c0-.2-.1-.3-.3-.4s-.3.2-.4.4-.2,1.1-.4,1.2a1.9,1.9,0,0,1-1,.5H79.9c-.1-.1-.1-.4-.1-.8v-6c0-.5,0-.8.2-1Zm30,3.4V16.7a4.1,4.1,0,0,1,.3-1.9,1.8,1.8,0,0,1,1.2-.8.3.3,0,0,0,.3-.3c-.1-.2-.2-.3-.4-.3h-5.6c-.3,0-.4.1-.4.2a.4.4,0,0,0,.4.4,4.2,4.2,0,0,1,2.1.8,2.5,2.5,0,0,1,.7,1.8l.2,3.4v9.3a.2.2,0,0,1-.2.2l-.4-.3L94.6,13.9a.9.9,0,0,0-.7-.4H91.3a.3.3,0,0,0-.3.3c0,.2.1.3.4.3a3.1,3.1,0,0,1,2.3,1.7,7.9,7.9,0,0,1,.8,4.1v10a4.5,4.5,0,0,1-.4,2.3,3.2,3.2,0,0,1-1.7,1.2c-.3.1-.4.2-.4.3s.2.3.4.3H98c.2,0,.3-.1.3-.2s-.2-.4-.5-.4a2.1,2.1,0,0,1-1.5-.6,2,2,0,0,1-.6-1.3V19.7c0-.5.1-.7.3-.7h.2l.2.2,12.4,14.2.3.4h.4c.2,0,.3-.1.4-.3s.1-.9.1-2V18.3Zm21.4,0V16.7a4.1,4.1,0,0,1,.3-1.9,1.8,1.8,0,0,1,1.2-.8.3.3,0,0,0,.3-.3c0-.2-.2-.3-.4-.3h-5.6l-.4.2a.4.4,0,0,0,.4.4c1.1.2,1.8.4,2.1.8a2.5,2.5,0,0,1,.8,1.8l.2,3.4v9.3c0,.1,0,.2-.1.2s-.2-.1-.4-.3L116.1,13.9a1,1,0,0,0-.8-.4h-2.6a.3.3,0,0,0-.3.3c0,.2.1.3.4.3a3.1,3.1,0,0,1,2.3,1.7,7.8,7.8,0,0,1,.9,4.1v10a4.4,4.4,0,0,1-.5,2.3,2.9,2.9,0,0,1-1.7,1.2c-.2.1-.4.2-.4.3s.2.3.4.3h5.6c.2,0,.3-.1.3-.2s-.1-.4-.5-.4a2.3,2.3,0,0,1-1.5-.6,1.6,1.6,0,0,1-.5-1.3V19.7c0-.5.1-.7.3-.7h.2l.2.2,12.4,14.2.4.4c0,.1.2.1.3.1s.4-.1.4-.3a8.7,8.7,0,0,0,.1-2V18.3Zm8.1-3.4a2.9,2.9,0,0,1,1.2-.2H143l3.1.2a1.4,1.4,0,0,1,1.2.9,2.9,2.9,0,0,1,.2.9v.4c0,.3.1.4.2.4a.5.5,0,0,0,.4-.2,10.4,10.4,0,0,0,.1-1.1v-.8a8.4,8.4,0,0,1,.1-1.2v-.4a.4.4,0,0,0-.4-.4h-7l-5.1-.2h-1c-.4,0-.6.1-.6.4s.1.3.4.3,1.5.2,1.8.7a5.8,5.8,0,0,1,.5,2.8V31.1c0,1.2-.4,1.9-1.1,2.1h-.6c-.2.1-.3.2-.3.4s.1.3.4.3h.8l3.7-.2,4.6.3h1.2a4.3,4.3,0,0,0,3.3-1.5,4,4,0,0,0,1-2.3c0-.3-.1-.4-.2-.4s-.3.1-.4.3-3.6,2.6-7.4,2.6a5.3,5.3,0,0,1-2.3-.3,2,2,0,0,1-.5-1.6V24.9a.6.6,0,0,1,.3-.6l.9-.2h3.3a3,3,0,0,1,1.8.4,2,2,0,0,1,.7,1.3v.4a.4.4,0,0,0,.4.4c.2,0,.3-.2.3-.4s-.1-.2-.1-.4-.1-1.2-.1-1.8a24.6,24.6,0,0,1,.2-2.6V21c0-.2-.1-.3-.3-.4s-.3.2-.4.4-.2,1.1-.4,1.2a1.9,1.9,0,0,1-1,.5h-5.5a1.3,1.3,0,0,1-.2-.8v-6a1.3,1.3,0,0,1,.3-1Zm15.2-.2a4.8,4.8,0,0,0-1.8,3.9,4.5,4.5,0,0,0,1.4,3.5,12.7,12.7,0,0,0,4.6,2.5,13.5,13.5,0,0,1,3.8,1.6A3.4,3.4,0,0,1,164,29a3.5,3.5,0,0,1-1.4,2.9,5,5,0,0,1-3.4,1.2,5.6,5.6,0,0,1-3.7-1.3,5.5,5.5,0,0,1-2.3-3.1c-.1-.4-.3-.7-.5-.7s-.3.2-.3.4a10.8,10.8,0,0,0,.4,1.9,8.3,8.3,0,0,1,.4,1.4,2.9,2.9,0,0,0,.3,1,.5.5,0,0,0,.3.4,5.7,5.7,0,0,0,2,.7,8.1,8.1,0,0,0,2.5.4,7.7,7.7,0,0,0,5.2-1.8,5.9,5.9,0,0,0,2-4.5c0-2.7-1.8-4.7-5.5-5.9a25.2,25.2,0,0,1-3.5-1.3,3.3,3.3,0,0,1-1.3-1.1,3.1,3.1,0,0,1-.7-2.1,3.2,3.2,0,0,1,1.1-2.4,3.9,3.9,0,0,1,2.6-.9,6.6,6.6,0,0,1,3.7,1,5,5,0,0,1,2.1,2.7c.2.4.3.7.5.7s.3-.2.3-.5a1.8,1.8,0,0,0-.1-.6l-.2-1.5c-.1-.8-.2-1.3-.2-1.5s-.1-.7-.4-.7h-.1l-.2.2-.4.2H163l-1.1-.4a6.7,6.7,0,0,0-2.6-.5,6.9,6.9,0,0,0-4.6,1.5Zm15.9,0a4.8,4.8,0,0,0-1.8,3.9,4.8,4.8,0,0,0,1.4,3.5,12.7,12.7,0,0,0,4.6,2.5,13.5,13.5,0,0,1,3.8,1.6,3.4,3.4,0,0,1,1.3,2.8,3.5,3.5,0,0,1-1.4,2.9,5,5,0,0,1-3.4,1.2,5.8,5.8,0,0,1-3.7-1.3,5.5,5.5,0,0,1-2.3-3.1c-.1-.4-.3-.7-.4-.7s-.3.2-.3.4a8.9,8.9,0,0,0,.3,1.9,8.3,8.3,0,0,1,.4,1.4,2.9,2.9,0,0,0,.3,1l.3.4a6.6,6.6,0,0,0,2,.7,8.1,8.1,0,0,0,2.5.4,7.5,7.5,0,0,0,5.2-1.8,5.9,5.9,0,0,0,2-4.5c0-2.7-1.8-4.7-5.5-5.9a25.2,25.2,0,0,1-3.5-1.3,3.3,3.3,0,0,1-1.3-1.1,3.1,3.1,0,0,1-.7-2.1,3.2,3.2,0,0,1,1.1-2.4,3.9,3.9,0,0,1,2.6-.9,6.6,6.6,0,0,1,3.7,1,4.6,4.6,0,0,1,2.1,2.7c.2.4.3.7.5.7s.3-.2.3-.5v-.6l-.3-1.5c-.1-.8-.2-1.3-.2-1.5s-.1-.7-.3-.7h-.2l-.2.2-.4.2h-.2l-1.1-.4a6.7,6.7,0,0,0-2.6-.5,6.9,6.9,0,0,0-4.6,1.5Zm17.9.2a2.9,2.9,0,0,1,1.2-.2H192a20,20,0,0,1,3.2.2,1.4,1.4,0,0,1,1.1.9,2.9,2.9,0,0,1,.2.9v.4c0,.3.1.4.3.4l.3-.2a5.4,5.4,0,0,0,.2-1.1v-.8a8.3,8.3,0,0,0,.1-1.2.8.8,0,0,0,.1-.4.5.5,0,0,0-.5-.4h-7l-5-.2h-1c-.5,0-.7.1-.7.4s.2.3.4.3a2.2,2.2,0,0,1,1.9.7,6.1,6.1,0,0,1,.4,2.8V31.1c0,1.2-.4,1.9-1.1,2.1h-.5c-.3.1-.4.2-.4.4s.1.3.5.3h.7l3.7-.2,4.7.3h1.1a4.5,4.5,0,0,0,4.4-3.8c0-.3-.1-.4-.3-.4s-.2.1-.3.3-3.6,2.6-7.5,2.6a5.3,5.3,0,0,1-2.3-.3c-.3-.2-.4-.8-.4-1.6V24.9c0-.3,0-.5.2-.6a2.2,2.2,0,0,1,1-.2h3.2a2.6,2.6,0,0,1,1.8.4,1.7,1.7,0,0,1,.7,1.3v.4c.1.2.2.4.4.4s.3-.2.3-.4v-.4a10.9,10.9,0,0,1-.1-1.8,23.5,23.5,0,0,1,.1-2.6V21c0-.2-.1-.3-.3-.4s-.3.2-.3.4-.3,1.1-.5,1.2a1.5,1.5,0,0,1-1,.5h-5.5c-.1-.1-.1-.4-.1-.8v-6a2.2,2.2,0,0,1,.2-1Zm17,0a2.9,2.9,0,0,1,1.2-.2H209l3.1.2a1.4,1.4,0,0,1,1.2.9,2.8,2.8,0,0,1,.1.9v.4c0,.3.1.4.3.4s.3-.1.3-.2a5.4,5.4,0,0,0,.2-1.1v-.8c0-.7,0-1.1.1-1.2v-.4c0-.2-.1-.4-.5-.4H207l-5.1-.2h-1c-.4,0-.6.1-.6.4s.1.3.4.3,1.5.2,1.8.7a5.8,5.8,0,0,1,.5,2.8V31.1c0,1.2-.3,1.9-1,2.1h-.6c-.2.1-.4.2-.4.4s.2.3.5.3h.8l3.6-.2,4.7.3h1.1a4,4,0,0,0,3.3-1.5,4.3,4.3,0,0,0,1.1-2.3c0-.3-.1-.4-.3-.4s-.2.1-.3.3-3.6,2.6-7.5,2.6a4.8,4.8,0,0,1-2.2-.3,2,2,0,0,1-.5-1.6V24.9a.8.8,0,0,1,.2-.6,2.2,2.2,0,0,1,1-.2h3.3a3,3,0,0,1,1.8.4,2,2,0,0,1,.7,1.3v.4c0,.2.1.4.3.4s.3-.2.3-.4v-.4a10.9,10.9,0,0,1-.1-1.8c0-.8.1-1.7.1-2.6a.8.8,0,0,0,.1-.4c0-.2-.1-.3-.3-.4a.4.4,0,0,0-.4.4,2.5,2.5,0,0,1-.4,1.2,1.9,1.9,0,0,1-1.1.5h-5.5a5.4,5.4,0,0,1-.1-.8v-6a1.3,1.3,0,0,1,.3-1Z"/><path class="cls-1" d="M60.6,1.1A3.1,3.1,0,0,1,61.9.9a1.6,1.6,0,0,1,1.1.3,1.5,1.5,0,0,1,.6.9c0,.2.1.3.2.3s.1-.1.1-.3V1.6a3.5,3.5,0,0,0-.1-.6V.6c0-.2-.1-.3-.4-.3H55.8a.3.3,0,0,0-.3.3v2c0,.2,0,.2.2.2l.2-.2V2.4a4.1,4.1,0,0,1,.4-.9c0-.1.2-.3.4-.4h1.8c.4,0,.6.1.6.5V7.6a1.7,1.7,0,0,1-.3,1,1,1,0,0,1-.8.3h-.2c-.1,0-.1.1-.1.2a.2.2,0,0,0,.2.2h4.2c.1,0,.2,0,.2-.1s-.1-.3-.2-.3a1.4,1.4,0,0,1-1.2-.5,3,3,0,0,1-.3-1.6V1.9a1.3,1.3,0,0,1,.2-.8ZM73.3,4.9a5.4,5.4,0,0,1,.1.8V7.5a2.5,2.5,0,0,1-.1,1,.8.8,0,0,1-.7.4l-.2.2c0,.2.1.2.3.2H76c.3,0,.4,0,.4-.2h-.3a1.1,1.1,0,0,1-.9-.5,2.1,2.1,0,0,1-.3-1.3V1.5a.8.8,0,0,1,.7-.9l.2-.2c0-.1,0-.2-.2-.2H72.1a.2.2,0,0,0-.2.2l.2.2h.3c.6.1,1,.4,1,1V3.1a5.5,5.5,0,0,1-.1.9H69.1c-.1-.1-.1-.3-.1-.8V1.5a.8.8,0,0,1,.7-.9l.2-.2c0-.1,0-.2-.2-.2H66.2a.2.2,0,0,0-.2.2.2.2,0,0,0,.2.2,1.9,1.9,0,0,1,1,.4c.2.1.2.3.2.7V7.5c0,.5,0,.8-.2,1a.5.5,0,0,1-.6.4l-.2.2c0,.2.1.2.3.2h3.4c.3,0,.4,0,.4-.2h-.2a1.1,1.1,0,0,1-1-.5A2.1,2.1,0,0,1,69,7.2V5.6c0-.4,0-.6.1-.7s.2-.1.5-.1h3.7Zm8-3.4c0-.3.1-.6.3-.6h1.3a2.8,2.8,0,0,1,1.5.3c.4.2.5.5.5,1a.3.3,0,0,0,.1.2c.2,0,.3-.1.3-.5a3.2,3.2,0,0,0-.1-.8V.5c0-.2-.1-.3-.2-.3H78.6c-.2,0-.2.1-.2.2s0,.2.1.2.9.2,1,.4.3.5.3,1V7.2a2.2,2.2,0,0,1-.1.9.8.8,0,0,1-.2.6L79,9l-.2.2h4.9l1.2-.2a2.3,2.3,0,0,0,.7-.7,3.1,3.1,0,0,0,.3-1.3h-.2c-.6,1.1-1.7,1.6-3.5,1.6h-.5c-.1,0-.2-.2-.3-.4s-.1-.7-.1-1.3V5.3c.1-.2.1-.4.2-.4h1.8l.4.2a1.3,1.3,0,0,1,.4.9c0,.2.1.2.2.2h.1V4.7c0-.5-.1-.8-.1-1a.3.3,0,0,1,.1-.2V3.2c0-.2-.1-.2-.2-.2H84v.3c-.3.5-.6.8-1,.8H81.8a.5.5,0,0,1-.4-.2c-.1-.1-.1-.4-.1-.8V1.5ZM100,.4c0,.1.1.2.3.2a1.2,1.2,0,0,1,.9.3,1.9,1.9,0,0,1,.4,1V3.7a17,17,0,0,1-.2,2.8,2.7,2.7,0,0,1-.8,1.5,2.8,2.8,0,0,1-2,.8A3.2,3.2,0,0,1,96.5,8a4.1,4.1,0,0,1-.7-1.1,13.5,13.5,0,0,1-.1-2.3V1.8a2.2,2.2,0,0,1,.1-.9l.6-.3h.3c0-.1-.1-.2-.4-.2H93a.2.2,0,0,0-.2.2l.2.2.8.2c.1.1.3.2.3.3s.1.3.1.6V5.5c0,1.6.4,2.8,1.2,3.3a4,4,0,0,0,2.6.7,3.7,3.7,0,0,0,3.4-1.6,3.8,3.8,0,0,0,.6-1.8,22.3,22.3,0,0,0,.2-3V1.7c0-.7.2-1.1.5-1.1h.4c0-.1,0-.2-.2-.2h-2.8c-.1,0-.1.1-.1.2Zm8.9,1-.5-.5-.5-.6h-2.5a.2.2,0,0,0-.2.2h.2c1,.1,1.5.8,1.5,2.2V7.2a2.1,2.1,0,0,1-.3,1.2,1.1,1.1,0,0,1-.7.6.2.2,0,1,0,0,.4h3c.2,0,.2,0,.2-.2h-.2a1.5,1.5,0,0,1-1.3-.9,13.1,13.1,0,0,1-.2-2.7V2.8h.1c0-.2,0-.3.1-.3h.2l6,6.7h.3c.1,0,.1,0,.1-.1V2.1c0-.9.3-1.4.8-1.5s.3-.1.3-.2-.1-.2-.3-.2h-2.9c-.2,0-.2.1-.2.2a.2.2,0,0,0,.2.2,1.2,1.2,0,0,1,1.2.6,4.5,4.5,0,0,1,.3,2.1V6c0,.3-.1.4-.2.4s-.3-.1-.6-.5l-.2-.2-3.5-3.9c0-.1-.1-.2-.3-.4Zm11.7.2c0-.3,0-.6.1-.7l.6-.3h.2V.4c0-.1,0-.2-.2-.2h-3.6c-.1,0-.1,0-.1.1s0,.2.1.2h.4l.8.4a1.3,1.3,0,0,1,.2.8V7.8a1.9,1.9,0,0,1-.2.8l-.6.4h-.2c0,.1.1.1.2.1h3.4c.3,0,.5,0,.5-.2s-.1-.2-.4-.2a1.1,1.1,0,0,1-.8-.2,1.1,1.1,0,0,1-.3-.8V1.6Zm6.2-.4a.6.6,0,0,1,.5-.6c.2,0,.3-.1.3-.2a.2.2,0,0,0-.2-.2H124c-.1,0-.1.1-.1.2s0,.2.2.2.6.2.7.5a5.6,5.6,0,0,1,.8,1.6,13.6,13.6,0,0,0,.9,2.3l1.6,3.6V9l.2.3.2.2q.2,0,.3-.3l.4-.9.6-1.3L131,4.5l1-2.2.7-1.4.6-.4h.2c0-.2,0-.2-.1-.2h-3a.2.2,0,0,0-.2.2h.2a1.9,1.9,0,0,1,.9.4.9.9,0,0,1,.3.7,7.7,7.7,0,0,1-.8,2.3l-1.5,3.3v.2c-.1,0-.1-.1-.2-.3l-1.5-3.6a6.6,6.6,0,0,1-.7-2.3Zm11.3.3c0-.3.1-.6.4-.6h1.2a3.5,3.5,0,0,1,1.6.3,1.1,1.1,0,0,1,.4,1,.2.2,0,0,0,.2.2c.1,0,.2-.1.2-.5V1a1.3,1.3,0,0,1-.1-.5c0-.2,0-.3-.2-.3h-6.4a.2.2,0,0,0-.2.2l.2.2a1.9,1.9,0,0,1,1,.4,1.9,1.9,0,0,1,.2,1V7.2a2.2,2.2,0,0,1-.1.9.8.8,0,0,1-.2.6l-.5.3c-.1,0-.1.1-.1.2s0,.1.1.1h4.7l1.2-.2a2.3,2.3,0,0,0,.7-.7,3.3,3.3,0,0,0,.4-1.3.1.1,0,0,0-.1-.1h-.2c-.5,1.1-1.7,1.6-3.5,1.6h-.5c-.1,0-.2-.2-.2-.4a3.5,3.5,0,0,1-.2-1.3V6.3a2.5,2.5,0,0,1,.1-1c0-.2,0-.4.1-.4h1.8l.4.2a1,1,0,0,1,.4.9l.2.2h.2V5.6a3.4,3.4,0,0,0-.1-.9V3.2c0-.2-.1-.2-.1-.2s-.2,0-.2.1l-.2.3a1.1,1.1,0,0,1-1,.8h-1.1l-.4-.2a5.4,5.4,0,0,1-.1-.8V1.5Zm9.5,3.9a.4.4,0,0,1,.1-.3h.8l.7.2a1.7,1.7,0,0,1,.6.9,12.8,12.8,0,0,0,1.5,2.6,1.7,1.7,0,0,0,1.2.6l1-.2c.3-.2.5-.3.5-.5h-.5a.8.8,0,0,1-.7-.2,2.3,2.3,0,0,1-.6-.9l-.7-1.2-.6-1c0-.1-.1-.2-.1-.3V4.7a.1.1,0,0,1,.1-.1,2,2,0,0,0,1-.8,1.9,1.9,0,0,0,.4-1.2,2.1,2.1,0,0,0-.8-1.7,3.1,3.1,0,0,0-2.1-.7h-4.5a.2.2,0,0,0-.2.2c0,.1.1.2.3.2s.8.2,1,.5.2.6.2,1.1V7.9a1.7,1.7,0,0,1-.1.8l-.7.3c-.1,0-.1.1-.1.2a.2.2,0,0,0,.2.2h3.4c.2,0,.3,0,.3-.2s-.1-.2-.3-.2-.8-.2-.9-.5a3.2,3.2,0,0,1-.3-1.7V5.4Zm.2-4.5a.8.8,0,0,1,.6-.2,2.1,2.1,0,0,1,1.7.7,2.1,2.1,0,0,1,.6,1.6,1.6,1.6,0,0,1-.4,1.2l-.6.3h-1.9a.8.8,0,0,1-.2-.5V1.6a1,1,0,0,1,.2-.7Zm9-.1a2.9,2.9,0,0,0-.7,1.9,2.5,2.5,0,0,0,.5,1.5l2,1.2,1,.4.9.6a1.4,1.4,0,0,1,.3.9,2.1,2.1,0,0,1-.5,1.2,2.1,2.1,0,0,1-1.2.5,2.7,2.7,0,0,1-1.7-.8,4,4,0,0,1-1.1-1.9V6.1c-.2,0-.2.1-.2.4a3.4,3.4,0,0,0,.2,1.1,5.1,5.1,0,0,1,.2.9.4.4,0,0,0,.1.3l.3.2.7.2,1.5.3a2.5,2.5,0,0,0,1.9-.9,2.6,2.6,0,0,0,.8-2,2.8,2.8,0,0,0-.6-1.8,4.9,4.9,0,0,0-2-1.2,7.3,7.3,0,0,1-1.6-.8,1,1,0,0,1-.4-.9,1.4,1.4,0,0,1,.5-.9,1.3,1.3,0,0,1,1-.4,2.1,2.1,0,0,1,1.6.7,2.5,2.5,0,0,1,1,1.6.2.2,0,0,0,.2.2c.1,0,.1-.1.1-.3h0V.7c0-.2-.1-.2-.2-.2h-.5l-.4-.2h-.5a2.7,2.7,0,0,0-1.2-.3,2.9,2.9,0,0,0-1.8.7Zm10.1.8a1.2,1.2,0,0,1,.2-.7l.6-.3h.2V.4a.2.2,0,0,0-.2-.2h-3.6c-.1,0-.2,0-.2.1s0,.2.1.2h.4c.4.1.7.2.8.4s.2.4.2.8V7.8a1.9,1.9,0,0,1-.1.8,1.4,1.4,0,0,1-.7.4h-.1c0,.1,0,.1.1.1h3.5c.3,0,.4,0,.4-.2s-.1-.2-.3-.2a1.1,1.1,0,0,1-.8-.2,1.2,1.2,0,0,1-.4-.8V1.6Zm8.6-.5a3.1,3.1,0,0,1,1.3-.2,1.6,1.6,0,0,1,1.1.3,1.5,1.5,0,0,1,.6.9c0,.2.1.3.2.3s.2-.1.2-.3a4.3,4.3,0,0,1-.1-.5,3.5,3.5,0,0,0-.1-.6V.6c0-.2-.1-.3-.4-.3h-7.6a.3.3,0,0,0-.3.3v2c0,.2,0,.2.2.2l.2-.2V2.4a2.2,2.2,0,0,1,.3-.9c0-.1.2-.3.4-.4h1.8c.4,0,.6.1.6.5V7.6a1.7,1.7,0,0,1-.3,1,1,1,0,0,1-.8.3h-.2c-.1,0-.1.1-.1.2a.2.2,0,0,0,.2.2h4.2c.1,0,.2,0,.2-.1s-.1-.3-.2-.3a1.4,1.4,0,0,1-1.2-.5,3,3,0,0,1-.3-1.6V1.9a1.3,1.3,0,0,1,.2-.8Zm10.4,4.2.2-.3q.8-1.2,1.5-2.7a10.5,10.5,0,0,1,.8-1.3,2,2,0,0,1,.8-.4c.2,0,.2-.1.2-.2s0-.1-.1-.1h-3a.2.2,0,0,0-.2.2.2.2,0,0,0,.2.2,1.3,1.3,0,0,1,.8.3.5.5,0,0,1,.3.5,10.5,10.5,0,0,1-.7,1.6l-.5.8c-.2.5-.4.7-.5.7s-.3-.2-.5-.5-.1-.3-.4-.7l-.5-1a5.8,5.8,0,0,1-.5-1.3c0-.2.2-.3.6-.4l.2-.2c0-.1-.1-.1-.3-.1h-3.4c-.2,0-.2.1-.2.2s.1.2.2.2a2,2,0,0,1,1.4,1.2l1,1.9.8,1.4a1.6,1.6,0,0,1,.3.9V7.2a2.3,2.3,0,0,1-.3,1.3,1.9,1.9,0,0,1-1,.5h-.2c0,.2.1.2.2.2h4.1c.2,0,.3,0,.3-.2h-.2c-.9-.1-1.3-.4-1.4-.9V5.3ZM199.2.5a5,5,0,0,0-1.7,1.1,5.3,5.3,0,0,0-.8,1.5,5.8,5.8,0,0,0-.4,1.8,4.5,4.5,0,0,0,1.3,3.3A4.9,4.9,0,0,0,201,9.5,4.3,4.3,0,0,0,204.5,8a5,5,0,0,0,1.3-3.6,4.1,4.1,0,0,0-1.2-3.1A4.8,4.8,0,0,0,201.3.1a4.6,4.6,0,0,0-2.1.4Zm3.7,1a2.7,2.7,0,0,1,1,1.5,4.8,4.8,0,0,1,.4,2,5,5,0,0,1-.8,2.9A2.7,2.7,0,0,1,201.3,9a2.9,2.9,0,0,1-2.4-1.3,5.9,5.9,0,0,1-.9-3.4,4.1,4.1,0,0,1,.7-2.7,2.4,2.4,0,0,1,2.1-1,2.9,2.9,0,0,1,2.1.9Zm7.8,0a.6.6,0,0,1,.2-.5l.5-.2h1.1q1.5,0,1.8.9v.5h.2c.1,0,.2-.1.2-.5V.6c0-.3-.1-.4-.2-.4H208a.2.2,0,0,0-.2.2h.2a1.9,1.9,0,0,1,.9.4c.2.1.3.5.3,1V7.5a3.1,3.1,0,0,1-.1,1.1,1,1,0,0,1-.5.4l-.2.2c0,.1,0,.2.2.2h3.6a.1.1,0,0,0,.1-.1c0-.2-.1-.2-.2-.2a1.9,1.9,0,0,1-1-.4,2.7,2.7,0,0,1-.4-1.5V5.8a1.4,1.4,0,0,1,.2-.9H212l1.1.2a1.3,1.3,0,0,1,.4.9l.2.2h.2V4.4a2.8,2.8,0,0,1-.1-.9V3.3h.1a.2.2,0,1,0-.4,0,2.8,2.8,0,0,1-.5.8l-.7.2h-1.4a4.3,4.3,0,0,1-.1-.5V1.5Z"/><path class="cls-1" d="M59.1,40.8a2.2,2.2,0,0,1,.1-1c.1-.2.3-.3.7-.4a.2.2,0,0,0,.2-.2c0-.1-.1-.2-.2-.1H56.3c-.1,0-.2,0-.2.1v.2h.2a1.5,1.5,0,0,1,.8.2,1,1,0,0,1,.4.5v6a3.1,3.1,0,0,1-.1,1.1,1.2,1.2,0,0,1-.7.5c-.1,0-.2,0-.2.1s.1.2.3.2h3.4a.2.2,0,0,0,.2-.2c0-.1-.1-.2-.4-.2a.8.8,0,0,1-.7-.5,3,3,0,0,1-.2-1.5v-1a.5.5,0,0,1,.2-.4l.3-.3h.2l.2-.2q.2,0,.3.3a9.1,9.1,0,0,0,1.1,1.6l1.5,1.9.2.3a.9.9,0,0,0,.6.3H66c.1,0,.2,0,.2-.2s-.1-.1-.2-.2h-.1a3.6,3.6,0,0,1-1.5-.8,29.9,29.9,0,0,1-2.4-3l-.4-.7a.9.9,0,0,1-.3-.5c0-.2.1-.4.5-.7l.7-.6,1.7-1.5a3.1,3.1,0,0,1,1-.5c.2,0,.3-.1.3-.2a.2.2,0,0,0-.2-.2h-3c-.2,0-.3.1-.3.2a.2.2,0,0,0,.2.2h.5l.2.3c0,.4-.6,1.2-1.9,2.2l-.9.9-.6.5-.3.2c-.1,0-.1,0-.1-.2V40.8Zm11.8-.6-.4-.6c-.3-.3-.5-.4-.5-.5H67.4c-.1,0-.2,0-.2.2s.1.1.2.1,1.5.8,1.5,2.2V46a2.1,2.1,0,0,1-.3,1.2.9.9,0,0,1-.7.6.2.2,0,0,0-.2.2c0,.1.1.1.2.1h3c.2,0,.2,0,.2-.2s0-.1-.2-.1-1.1-.4-1.2-.9a8.7,8.7,0,0,1-.2-2.7V41.4c0-.2,0-.3.1-.3s.1.1.2.2l6,6.7h.3c.1,0,.1,0,.1-.2v-7c0-.9.3-1.4.8-1.5s.3-.1.3-.2-.1-.2-.3-.2H74.2c-.2,0-.2.1-.2.2l.2.2a1.2,1.2,0,0,1,1.2.6,4.5,4.5,0,0,1,.3,2.1v2.7c0,.3-.1.4-.2.4s-.3-.1-.6-.5l-.2-.2-3.5-3.9c0-.1-.1-.2-.3-.4Zm10.8-.9a4.6,4.6,0,0,0-1.6,1.1,5.4,5.4,0,0,0-.9,1.5,5.7,5.7,0,0,0-.3,1.8A4.2,4.2,0,0,0,80.2,47a4.8,4.8,0,0,0,3.4,1.3,4.3,4.3,0,0,0,3.5-1.5,5.2,5.2,0,0,0,1.3-3.6,4.1,4.1,0,0,0-1.2-3.1,4.9,4.9,0,0,0-3.4-1.2,5.2,5.2,0,0,0-2.1.4Zm3.8.9a3.7,3.7,0,0,1,1,1.6,4.8,4.8,0,0,1,.4,2,5,5,0,0,1-.8,2.9,2.8,2.8,0,0,1-2.2,1.1,2.9,2.9,0,0,1-2.4-1.3,6,6,0,0,1-1-3.4,4.1,4.1,0,0,1,.8-2.7,2.4,2.4,0,0,1,2.1-1,3.2,3.2,0,0,1,2.1.8Zm9.9-1c0,.1,0,.2.2.2h.3c.4,0,.5.2.5.5a.6.6,0,0,1-.1.4l-.7.9-.7.8-.3.3a.3.3,0,0,1-.1.2q-.1,0-.3-.3l-.5-.7-.5-.6a8,8,0,0,1-.5-1.1c0-.1.1-.2.2-.3a.5.5,0,0,1,.4-.2.2.2,0,0,0,0-.4H89.4a.2.2,0,0,0-.2.2c0,.1.1.2.3.2a3.1,3.1,0,0,1,1,.5L92.1,42a10.5,10.5,0,0,0,.8,1.1,2.8,2.8,0,0,1,.4.7,1.3,1.3,0,0,1-.4.7,8.8,8.8,0,0,0-1.1,1.3,17.8,17.8,0,0,1-1.4,1.4,2.7,2.7,0,0,1-1,.6c-.1,0-.2,0-.2.1s0,.1.1.1h3.5c.1,0,.1,0,.1-.1s0-.2-.2-.2-1-.3-1-.6.5-1.1,1.5-2.3l.4-.4h.3l.3.4,1.2,1.6a1.7,1.7,0,0,1,.3.7.5.5,0,0,1-.5.5c-.2.1-.3.1-.3.2s.1.2.3.2h3.9c.2,0,.3,0,.3-.1s-.1-.2-.2-.3a2.1,2.1,0,0,1-1.3-.5,18.6,18.6,0,0,1-1.8-2.3c-.5-.6-.7-1.1-.9-1.2a1.5,1.5,0,0,1-.3-.6c0-.1.1-.2.2-.4l.9-1.1a16.8,16.8,0,0,1,1.9-1.9,1.2,1.2,0,0,1,.9-.3.2.2,0,0,0,.2-.2c0-.1,0-.2-.2-.2H95.6a.2.2,0,0,0-.2.2Zm8.2.8c0-.4.2-.5.5-.6s.3-.1.3-.2a.2.2,0,0,0-.2-.2h-3.4c-.1,0-.1,0-.1.2a.2.2,0,0,0,.2.2,1.4,1.4,0,0,1,.8.5,16.5,16.5,0,0,1,.7,1.6c.2.7.6,1.4.9,2.3l1.6,3.6.2.4v.3c.1.1.1.2.2.2l.3-.3a4.1,4.1,0,0,0,.4-.9c.1,0,.3-.5.6-1.3l1.1-2.5,1-2.2c.3-.7.6-1.2.7-1.4l.6-.4c.2,0,.2-.1.2-.2s0-.1-.1-.1h-3a.2.2,0,0,0-.2.2h.3a2,2,0,0,1,.8.4.7.7,0,0,1,.3.6,7.2,7.2,0,0,1-.8,2.4L106.1,46a.3.3,0,0,1-.1.2c-.1,0-.1-.1-.2-.3l-1.5-3.6a11.9,11.9,0,0,1-.7-2.3Zm11.3.4c0-.4,0-.6.1-.7l.6-.3h.2a.2.2,0,0,0-.2-.2H112c-.1-.1-.2,0-.2.1v.2h.5c.3.1.6.2.7.4s.2.4.2.8v5.8a2.2,2.2,0,0,1-.1.9,1.4,1.4,0,0,1-.7.4h-.1c0,.1.1.1.2.1H116c.3,0,.4,0,.4-.2s-.1-.2-.3-.2l-.8-.2a2,2,0,0,1-.4-.8V40.4Zm6.4-.1c0-.6.2-.9.7-.9l.2-.2c0-.1-.1-.2-.4-.2h-3.3c-.2,0-.2,0-.2.2s0,.1.2.2h.4a1,1,0,0,1,.9,1.2v5.5a2.7,2.7,0,0,1-.2,1.1,1,1,0,0,1-.6.5.1.1,0,0,0-.1.1c0,.2,0,.2.2.2H124a1.5,1.5,0,0,0,1.3-.6,2,2,0,0,0,.6-1.5.3.3,0,0,0-.1-.2c-.1,0-.2.1-.4.4a3.8,3.8,0,0,1-3.2,1.3h-.6c-.2-.1-.3-.6-.3-1.4V40.3Zm9.1,0q0-.9.6-.9c.2,0,.3-.1.3-.2s-.1-.2-.4-.2h-3.4c-.1,0-.2,0-.2.2s.1.1.3.2h.4c.6.1.8.5.8,1.2v5.5a3.1,3.1,0,0,1-.1,1.1,1,1,0,0,1-.6.5h-.2c0,.2.1.2.2.2h5a1.6,1.6,0,0,0,1.3-.6,2,2,0,0,0,.5-1.5c0-.1,0-.2-.1-.2l-.3.4a4,4,0,0,1-3.2,1.3h-.6c-.2-.1-.3-.6-.3-1.4V40.3Zm9,0c0-.4.1-.6.4-.7H141a3.5,3.5,0,0,1,1.6.3,1,1,0,0,1,.4.9c0,.2.1.3.2.3s.2-.2.2-.5v-.8a1.3,1.3,0,0,1-.1-.5c0-.2,0-.3-.2-.3h-6.4a.2.2,0,0,0-.2.2c0,.1,0,.2.2.2a2,2,0,0,1,1,.3,2.5,2.5,0,0,1,.2,1V46a2.2,2.2,0,0,1-.1.9.8.8,0,0,1-.2.6l-.5.3c-.1,0-.1.1-.1.2s0,.1.1.1h4.7L143,48a1.9,1.9,0,0,0,.7-.8,2.8,2.8,0,0,0,.4-1.2,9951643238118.7,9951643238118.7,0,0,1-.2-.2.1.1,0,0,0-.1.1c-.6,1.1-1.7,1.6-3.5,1.6h-.5a.5.5,0,0,1-.2-.4,3.9,3.9,0,0,1-.2-1.3v-.6a3.4,3.4,0,0,1,.1-1.1c0-.1,0-.3.1-.3h1.8l.4.2a1.3,1.3,0,0,1,.4.9l.2.2h.1v-.5c0-.2-.1-.5-.1-.9V42c0-.2-.1-.2-.2-.2h-.2v.3a1,1,0,0,1-1,.7h-1.1a.5.5,0,0,1-.4-.2c-.1-.1-.1-.4-.1-.8V40.3Z"/><polygon class="cls-2" points="48 48 48 0 0 0 0 48 48 48 48 48"/><path class="cls-3" d="M41.9,6.1V18.2H37.5c0-2.3-2.3-4.1-5-4.1A5.1,5.1,0,0,0,28,16.5V31.6a5.9,5.9,0,0,0,5.6,5.9h0v4.4H14.4V37.5h0A5.9,5.9,0,0,0,20,31.6V16.5a5.1,5.1,0,0,0-4.5-2.4c-2.7,0-5,1.8-5,4.1H6.1V6.1Z"/></svg>