<?xml version="1.0" encoding="utf-8"?>
<!-- Generator: Adobe Illustrator 22.1.0, SVG Export Plug-In . SVG Version: 6.00 Build 0)  -->
<svg version="1.1" id="Layer_1" xmlns="http://www.w3.org/2000/svg" xmlns:xlink="http://www.w3.org/1999/xlink" x="0px" y="0px"
	 viewBox="0 0 200 24.46" style="enable-background:new 0 0 200 24.46;" xml:space="preserve">
<style type="text/css">
	.st0{fill:#A7A9AC;}
</style>
<title>utk-onesearch</title>
<path class="st0" d="M47.63,0.81v14.08L36.92,0.81h-4.74c-0.49,0.69-1.05,1.33-1.68,1.9c-0.62,0.44-1.28,0.81-1.92,1.22
	c-1.05,0.55-2.14,1.02-3.26,1.41v4.4c2.08-0.78,4-1.91,5.68-3.36v13.07h-5.29v4.14h15.94v-4.14h-4.41V9.14l11.08,14.54h4.28V0.81
	H47.63z"/>
<path class="st0" d="M0,12.7v-0.06C-0.01,6.11,5.28,0.81,11.8,0.8c0.13,0,0.26,0,0.39,0.01c6.47-0.22,11.89,4.84,12.11,11.31
	c0.01,0.15,0.01,0.3,0.01,0.45v0.07c0,6.53-5.29,11.82-11.81,11.83c-0.13,0-0.25,0-0.38-0.01C5.66,24.69,0.23,19.63,0.01,13.17
	C0,13.01,0,12.86,0,12.7z M19.05,12.7v-0.06c0.11-3.86-2.94-7.08-6.81-7.19c-0.04,0-0.08,0-0.12,0c-3.78-0.01-6.85,3.04-6.87,6.81
	c0,0.1,0,0.2,0.01,0.31v0.07c-0.13,3.83,2.87,7.04,6.7,7.18c0.08,0,0.16,0,0.23,0c3.78,0.01,6.85-3.04,6.87-6.81
	C19.06,12.9,19.05,12.8,19.05,12.7z"/>
<path class="st0" d="M56.7,0.81H74v4.47H61.7v4.64h10.78v4.48H61.7v4.8h12.42v4.48H56.7V0.81z"/>
<path class="st0" d="M76.86,20.35l1.63-1.93c2.11,2.13,5,3.32,8,3.3c3.14,0,5.21-1.66,5.21-4v-0.06c0-2.17-1.17-3.41-6.08-4.44
	c-5.37-1.17-7.84-2.91-7.84-6.74V6.44c0.01-3.67,3.22-6.37,7.69-6.37c3-0.09,5.92,0.93,8.21,2.87L92.14,5
	c-1.86-1.64-4.26-2.55-6.74-2.56c-3,0-5,1.66-5,3.77v0.06c0,2.2,1.2,3.44,6.34,4.54s7.61,3,7.61,6.61v0.07c0,4-3.34,6.6-8,6.6
	C82.82,24.12,79.42,22.78,76.86,20.35z"/>
<path class="st0" d="M96,0.4h16.88v2.4h-14.3v8h12.75v2.4H98.58v8.18H113v2.4H96V0.4z"/>
<path class="st0" d="M124.88,0.23h2.47L138,23.76h-2.84l-2.73-6.17H119.7l-2.76,6.17h-2.71L124.88,0.23z M131.38,15.23l-5.3-11.93
	l-5.34,11.88L131.38,15.23z"/>
<path class="st0" d="M139.1,0.4h10c2.44-0.13,4.83,0.71,6.64,2.34c1.19,1.23,1.84,2.89,1.81,4.6v0.07c0,3.87-2.67,6.14-6.35,6.8
	l7.18,9.55h-3.24l-6.77-9.08h-6.68v9.08h-2.59V0.4z M148.91,12.31c3.5,0,6-1.8,6-4.8V7.44c0-2.87-2.21-4.6-6-4.6h-7.21v9.47
	L148.91,12.31z"/>
<path class="st0" d="M158.69,12.15v-0.07c-0.17-6.5,4.96-11.9,11.46-12.08c0.12,0,0.24,0,0.35,0c3.42-0.11,6.73,1.24,9.11,3.7
	l-1.8,1.94c-1.9-2.03-4.56-3.19-7.34-3.2c-5.17,0-9,4.2-9,9.57v0.07c0,5.41,3.9,9.64,9,9.64c3.2,0,5.31-1.23,7.54-3.37l1.74,1.71
	c-2.37,2.67-5.78,4.16-9.35,4.1c-6.43,0.04-11.68-5.15-11.72-11.58C158.68,12.43,158.69,12.29,158.69,12.15z"/>
<path class="st0" d="M181.25,0.4h2.63v10.38h13.48V0.4H200v23.36h-2.64V13.25h-13.48v10.51h-2.63V0.4z"/>
</svg>
