<?xml version="1.0" encoding="utf-8"?>
<!-- Generator: Adobe Illustrator 22.1.0, SVG Export Plug-In . SVG Version: 6.00 Build 0)  -->
<svg version="1.1" id="Layer_1" xmlns="http://www.w3.org/2000/svg" xmlns:xlink="http://www.w3.org/1999/xlink" x="0px" y="0px"
	 viewBox="0 0 210 70" style="enable-background:new 0 0 210 70;" xml:space="preserve">
<style type="text/css">
	.st0{clip-path:url(#SVGID_2_);fill:none;stroke:#5C5D60;stroke-width:0.6265;}
	.st1{fill:#58595B;}
	.st2{fill:#FF8200;}
	.st3{fill:#FFFFFF;}
</style>
<g>
	<g>
		<defs>
			<rect id="SVGID_1_" y="0.226" width="209.686" height="69.774"/>
		</defs>
		<clipPath id="SVGID_2_">
			<use xlink:href="#SVGID_1_"  style="overflow:visible;"/>
		</clipPath>
		<line class="st0" x1="209.569" y1="53.35" x2="0.056" y2="53.35"/>
	</g>
	<path class="st1" d="M199.476,14.695c0.171-0.149,0.553-0.223,1.145-0.223h2.247c1.479,0,2.495,0.072,3.049,0.215
		c0.553,0.143,0.921,0.43,1.102,0.86c0.114,0.277,0.172,0.569,0.172,0.875v0.373c0,0.296,0.092,0.44,0.277,0.43
		c0.166-0.01,0.273-0.083,0.322-0.221c0.049-0.138,0.097-0.483,0.146-1.036l0.058-0.843c0.047-0.629,0.086-1.009,0.114-1.143
		c0.029-0.133,0.043-0.243,0.043-0.329c0-0.276-0.157-0.414-0.473-0.414c-0.124,0-0.315,0.019-0.573,0.057
		c-0.125,0.019-0.469,0.038-1.033,0.057l-2.036,0.1c-0.899,0.038-1.931,0.057-3.097,0.057c-1.922,0-3.566-0.076-4.933-0.229
		c-0.401-0.048-0.722-0.072-0.96-0.072c-0.431,0-0.646,0.131-0.646,0.393c0,0.178,0.139,0.267,0.416,0.267
		c0.87,0,1.455,0.237,1.757,0.711c0.301,0.474,0.451,1.396,0.451,2.764V29.48l-0.014,0.933c0,1.149-0.344,1.819-1.032,2.011
		l-0.545,0.158c-0.249,0.065-0.373,0.178-0.373,0.337c0,0.206,0.153,0.309,0.459,0.309c0.133,0,0.382-0.034,0.745-0.1
		c0.689-0.115,1.869-0.172,3.542-0.172c1.195,0,2.705,0.086,4.531,0.258c0.468,0.038,0.841,0.057,1.119,0.057
		c1.28,0,2.342-0.514,3.183-1.543c0.698-0.857,1.047-1.596,1.047-2.215c0-0.257-0.089-0.381-0.265-0.371
		c-0.108,0.01-0.216,0.096-0.323,0.258c-1.069,1.692-3.48,2.538-7.231,2.538c-1.184,0-1.921-0.1-2.212-0.302
		c-0.291-0.201-0.437-0.709-0.437-1.523v-5.286l-0.014-0.474c0-0.287,0.078-0.479,0.236-0.575c0.157-0.096,0.47-0.144,0.937-0.144
		h3.163c0.82,0,1.402,0.115,1.745,0.344c0.343,0.229,0.572,0.664,0.687,1.305l0.086,0.402c0.039,0.21,0.161,0.315,0.366,0.315
		c0.186,0,0.279-0.119,0.279-0.358c0-0.086-0.01-0.224-0.029-0.415c-0.057-0.572-0.086-1.149-0.086-1.731
		c0-0.763,0.043-1.607,0.128-2.532c0.01-0.143,0.016-0.248,0.016-0.315c0-0.248-0.093-0.377-0.279-0.386
		c-0.196-0.009-0.318,0.105-0.366,0.344c-0.125,0.631-0.264,1.032-0.416,1.204c-0.153,0.172-0.488,0.311-1.004,0.416
		c-0.583,0.115-1.377,0.172-2.38,0.172h-2.209c-0.411,0-0.657-0.045-0.738-0.137c-0.081-0.091-0.122-0.357-0.122-0.799V15.68
		C199.218,15.172,199.304,14.843,199.476,14.695L199.476,14.695L199.476,14.695z M183.037,14.695
		c0.172-0.149,0.554-0.223,1.145-0.223h2.248c1.479,0,2.495,0.072,3.048,0.215c0.554,0.143,0.921,0.43,1.102,0.86
		c0.115,0.277,0.172,0.569,0.172,0.875v0.373c0,0.296,0.093,0.44,0.278,0.43c0.166-0.01,0.273-0.083,0.322-0.221
		c0.048-0.138,0.097-0.483,0.146-1.036l0.057-0.843c0.048-0.629,0.086-1.009,0.115-1.143c0.029-0.133,0.043-0.243,0.043-0.329
		c0-0.276-0.158-0.414-0.473-0.414c-0.125,0-0.316,0.019-0.574,0.057c-0.124,0.019-0.468,0.038-1.032,0.057l-2.036,0.1
		c-0.899,0.038-1.931,0.057-3.098,0.057c-1.921,0-3.565-0.076-4.932-0.229c-0.402-0.048-0.722-0.072-0.961-0.072
		c-0.43,0-0.645,0.131-0.645,0.393c0,0.178,0.138,0.267,0.416,0.267c0.869,0,1.455,0.237,1.756,0.711
		c0.301,0.474,0.452,1.396,0.452,2.764V29.48l-0.014,0.933c0,1.149-0.345,1.819-1.033,2.011l-0.545,0.158
		c-0.248,0.065-0.373,0.178-0.373,0.337c0,0.206,0.153,0.309,0.459,0.309c0.134,0,0.383-0.034,0.746-0.1
		c0.688-0.115,1.869-0.172,3.542-0.172c1.194,0,2.705,0.086,4.531,0.258c0.468,0.038,0.841,0.057,1.118,0.057
		c1.281,0,2.342-0.514,3.183-1.543c0.698-0.857,1.047-1.596,1.047-2.215c0-0.257-0.088-0.381-0.264-0.371
		c-0.108,0.01-0.216,0.096-0.324,0.258c-1.069,1.692-3.479,2.538-7.23,2.538c-1.184,0-1.922-0.1-2.213-0.302
		c-0.291-0.201-0.436-0.709-0.436-1.523v-5.286l-0.015-0.474c0-0.287,0.079-0.479,0.237-0.575c0.157-0.096,0.469-0.144,0.937-0.144
		h3.162c0.82,0,1.402,0.115,1.746,0.344c0.343,0.229,0.572,0.664,0.687,1.305l0.085,0.402c0.039,0.21,0.162,0.315,0.367,0.315
		c0.186,0,0.279-0.119,0.279-0.358c0-0.086-0.01-0.224-0.029-0.415c-0.057-0.572-0.086-1.149-0.086-1.731
		c0-0.763,0.042-1.607,0.127-2.532c0.011-0.143,0.016-0.248,0.016-0.315c0-0.248-0.093-0.377-0.278-0.386
		c-0.196-0.009-0.318,0.105-0.367,0.344c-0.124,0.631-0.263,1.032-0.416,1.204c-0.153,0.172-0.487,0.311-1.003,0.416
		c-0.584,0.115-1.377,0.172-2.381,0.172h-2.208c-0.411,0-0.657-0.045-0.738-0.137c-0.082-0.091-0.122-0.357-0.122-0.799V15.68
		C182.78,15.172,182.866,14.843,183.037,14.695L183.037,14.695L183.037,14.695z M165.607,14.514
		c-1.152,0.974-1.728,2.235-1.728,3.783c0,1.385,0.442,2.512,1.325,3.382c0.883,0.869,2.384,1.662,4.504,2.379
		c2.052,0.689,3.293,1.22,3.723,1.593c0.84,0.727,1.26,1.622,1.26,2.684c0,1.11-0.455,2.053-1.366,2.827
		c-0.911,0.775-2.023,1.163-3.339,1.163c-1.297,0-2.498-0.403-3.604-1.208c-1.105-0.805-1.83-1.802-2.173-2.991
		c-0.136-0.46-0.292-0.695-0.468-0.705c-0.195-0.009-0.292,0.129-0.292,0.416c0,0.363,0.124,0.975,0.373,1.835
		c0.22,0.794,0.339,1.228,0.358,1.305c0.115,0.535,0.201,0.867,0.258,0.996c0.058,0.129,0.172,0.251,0.345,0.366
		c0.41,0.277,1.058,0.521,1.942,0.731c0.885,0.21,1.695,0.316,2.431,0.316c2.036,0,3.704-0.568,5.004-1.705
		c1.3-1.137,1.95-2.598,1.95-4.385c0-2.636-1.766-4.532-5.298-5.689c-1.814-0.603-2.952-1.019-3.415-1.249
		c-0.463-0.23-0.891-0.593-1.282-1.091c-0.449-0.584-0.673-1.278-0.673-2.082c0-0.909,0.345-1.667,1.036-2.275
		c0.691-0.608,1.551-0.912,2.581-0.912c1.296,0,2.47,0.336,3.523,1.007c1.053,0.672,1.751,1.525,2.094,2.561
		c0.156,0.46,0.312,0.69,0.468,0.69c0.204,0,0.307-0.148,0.307-0.445c0-0.076-0.024-0.272-0.072-0.588l-0.229-1.477
		c-0.125-0.803-0.187-1.286-0.187-1.448c0-0.478-0.119-0.712-0.358-0.703c-0.077,0-0.129,0.019-0.158,0.057l-0.201,0.172
		c-0.114,0.096-0.229,0.143-0.344,0.143c-0.086,0-0.172-0.019-0.258-0.057l-0.989-0.416c-0.708-0.296-1.573-0.445-2.596-0.445
		C168.243,13.052,166.759,13.539,165.607,14.514L165.607,14.514L165.607,14.514z M150.164,14.514
		c-1.152,0.974-1.728,2.235-1.728,3.783c0,1.385,0.442,2.512,1.325,3.382c0.883,0.869,2.384,1.662,4.504,2.379
		c2.052,0.689,3.293,1.22,3.722,1.593c0.841,0.727,1.261,1.622,1.261,2.684c0,1.11-0.455,2.053-1.366,2.827
		c-0.911,0.775-2.023,1.163-3.339,1.163c-1.297,0-2.498-0.403-3.604-1.208c-1.105-0.805-1.83-1.802-2.173-2.991
		c-0.136-0.46-0.292-0.695-0.468-0.705c-0.195-0.009-0.292,0.129-0.292,0.416c0,0.363,0.124,0.975,0.373,1.835
		c0.22,0.794,0.339,1.228,0.358,1.305c0.115,0.535,0.201,0.867,0.258,0.996c0.058,0.129,0.172,0.251,0.345,0.366
		c0.41,0.277,1.058,0.521,1.942,0.731c0.885,0.21,1.695,0.316,2.431,0.316c2.036,0,3.704-0.568,5.004-1.705
		c1.3-1.137,1.95-2.598,1.95-4.385c0-2.636-1.766-4.532-5.298-5.689c-1.814-0.603-2.952-1.019-3.415-1.249
		c-0.463-0.23-0.891-0.593-1.282-1.091c-0.449-0.584-0.673-1.278-0.673-2.082c0-0.909,0.345-1.667,1.036-2.275
		c0.691-0.608,1.551-0.912,2.581-0.912c1.296,0,2.47,0.336,3.523,1.007c1.053,0.672,1.751,1.525,2.094,2.561
		c0.156,0.46,0.312,0.69,0.468,0.69c0.204,0,0.307-0.148,0.307-0.445c0-0.076-0.024-0.272-0.072-0.588l-0.229-1.477
		c-0.125-0.803-0.187-1.286-0.187-1.448c0-0.478-0.119-0.712-0.358-0.703c-0.077,0-0.129,0.019-0.158,0.057l-0.201,0.172
		c-0.114,0.096-0.229,0.143-0.344,0.143c-0.086,0-0.172-0.019-0.258-0.057l-0.989-0.416c-0.708-0.296-1.573-0.445-2.596-0.445
		C152.8,13.052,151.316,13.539,150.164,14.514L150.164,14.514L150.164,14.514z M135.452,14.695c0.171-0.149,0.553-0.223,1.145-0.223
		h2.247c1.479,0,2.495,0.072,3.048,0.215c0.554,0.143,0.921,0.43,1.103,0.86c0.114,0.277,0.171,0.569,0.171,0.875v0.373
		c0,0.296,0.093,0.44,0.278,0.43c0.166-0.01,0.273-0.083,0.322-0.221c0.049-0.138,0.097-0.483,0.146-1.036l0.057-0.843
		c0.048-0.629,0.086-1.009,0.115-1.143c0.029-0.133,0.043-0.243,0.043-0.329c0-0.276-0.158-0.414-0.473-0.414
		c-0.124,0-0.316,0.019-0.574,0.057c-0.124,0.019-0.468,0.038-1.032,0.057l-2.036,0.1c-0.899,0.038-1.931,0.057-3.097,0.057
		c-1.922,0-3.566-0.076-4.933-0.229c-0.401-0.048-0.722-0.072-0.961-0.072c-0.43,0-0.645,0.131-0.645,0.393
		c0,0.178,0.138,0.267,0.416,0.267c0.87,0,1.455,0.237,1.756,0.711c0.301,0.474,0.452,1.396,0.452,2.764V29.48l-0.014,0.933
		c0,1.149-0.344,1.819-1.033,2.011l-0.545,0.158c-0.248,0.065-0.372,0.178-0.372,0.337c0,0.206,0.152,0.309,0.458,0.309
		c0.134,0,0.383-0.034,0.746-0.1c0.688-0.115,1.869-0.172,3.542-0.172c1.195,0,2.705,0.086,4.531,0.258
		c0.468,0.038,0.841,0.057,1.118,0.057c1.281,0,2.342-0.514,3.184-1.543c0.697-0.857,1.046-1.596,1.046-2.215
		c0-0.257-0.088-0.381-0.264-0.371c-0.108,0.01-0.216,0.096-0.324,0.258c-1.069,1.692-3.479,2.538-7.23,2.538
		c-1.184,0-1.921-0.1-2.212-0.302c-0.292-0.201-0.437-0.709-0.437-1.523v-5.286l-0.014-0.474c0-0.287,0.078-0.479,0.236-0.575
		c0.157-0.096,0.47-0.144,0.937-0.144h3.162c0.821,0,1.402,0.115,1.746,0.344c0.343,0.229,0.572,0.664,0.687,1.305l0.086,0.402
		c0.039,0.21,0.161,0.315,0.366,0.315c0.186,0,0.279-0.119,0.279-0.358c0-0.086-0.01-0.224-0.029-0.415
		c-0.057-0.572-0.086-1.149-0.086-1.731c0-0.763,0.042-1.607,0.128-2.532c0.01-0.143,0.016-0.248,0.016-0.315
		c0-0.248-0.093-0.377-0.279-0.386c-0.196-0.009-0.318,0.105-0.367,0.344c-0.124,0.631-0.263,1.032-0.416,1.204
		c-0.153,0.172-0.487,0.311-1.003,0.416c-0.583,0.115-1.377,0.172-2.381,0.172h-2.208c-0.411,0-0.657-0.045-0.738-0.137
		c-0.082-0.091-0.122-0.357-0.122-0.799V15.68C135.194,15.172,135.28,14.843,135.452,14.695L135.452,14.695L135.452,14.695z
		 M127.602,17.984v-1.549c0-0.918,0.093-1.544,0.28-1.878c0.186-0.334,0.571-0.573,1.154-0.717c0.201-0.057,0.296-0.148,0.287-0.272
		c-0.02-0.201-0.153-0.301-0.402-0.301c-0.163,0-0.397,0.029-0.703,0.086c-0.353,0.057-0.826,0.086-1.419,0.086
		c-1.109,0-1.993-0.035-2.653-0.104c-0.277-0.026-0.478-0.039-0.602-0.039c-0.277,0-0.416,0.089-0.416,0.266
		c0,0.187,0.139,0.304,0.416,0.351c0.984,0.163,1.666,0.414,2.043,0.753c0.378,0.339,0.614,0.915,0.71,1.728l0.172,3.298
		l-0.014,1.936v7.098c-0.01,0.172-0.062,0.263-0.158,0.272c-0.057,0.01-0.191-0.105-0.401-0.344l-13.192-14.941
		c-0.239-0.277-0.478-0.416-0.717-0.416c-0.125,0-0.301,0.005-0.531,0.014l-0.229,0.014l-0.961-0.029l-0.588-0.014
		c-0.105-0.009-0.182-0.014-0.229-0.014c-0.211,0-0.316,0.089-0.316,0.266c0,0.178,0.129,0.285,0.387,0.322
		c0.995,0.134,1.755,0.677,2.28,1.629c0.526,0.952,0.789,2.255,0.789,3.91v9.758c0,1.033-0.141,1.782-0.423,2.246
		c-0.282,0.464-0.825,0.835-1.627,1.112c-0.278,0.093-0.412,0.21-0.402,0.35c0.019,0.177,0.153,0.266,0.402,0.266
		c0.105,0,0.281-0.017,0.53-0.052c0.335-0.043,0.688-0.065,1.061-0.065l0.688-0.026l1.463,0.072
		c0.726,0.038,1.142,0.067,1.247,0.086c0.153,0.019,0.297,0.029,0.431,0.029c0.2,0,0.301-0.094,0.301-0.28
		c0-0.206-0.158-0.327-0.473-0.365c-0.756-0.115-1.262-0.292-1.52-0.531c-0.258-0.239-0.421-0.675-0.488-1.306l-0.043-1.019
		l0.014-0.603v-9.732c0-0.431,0.091-0.646,0.273-0.646c0.076,0,0.143,0.029,0.201,0.086l0.143,0.158l12.088,13.823l0.315,0.373
		c0.077,0.076,0.187,0.119,0.33,0.129c0.22,0.009,0.354-0.103,0.402-0.337c0.047-0.234,0.071-0.891,0.071-1.972V18.931
		L127.602,17.984L127.602,17.984L127.602,17.984z M106.804,17.984v-1.549c0-0.918,0.093-1.544,0.279-1.878
		c0.187-0.334,0.571-0.573,1.155-0.717c0.2-0.057,0.296-0.148,0.286-0.272c-0.019-0.201-0.153-0.301-0.401-0.301
		c-0.163,0-0.397,0.029-0.703,0.086c-0.353,0.057-0.827,0.086-1.419,0.086c-1.109,0-1.993-0.035-2.653-0.104
		c-0.277-0.026-0.478-0.039-0.602-0.039c-0.278,0-0.416,0.089-0.416,0.266c0,0.187,0.138,0.304,0.416,0.351
		c0.984,0.163,1.665,0.414,2.043,0.753c0.378,0.339,0.614,0.915,0.71,1.728l0.172,3.298l-0.014,1.936v7.098
		c-0.01,0.172-0.063,0.263-0.158,0.272c-0.057,0.01-0.191-0.105-0.402-0.344L91.905,13.711c-0.239-0.277-0.478-0.416-0.717-0.416
		c-0.124,0-0.301,0.005-0.531,0.014l-0.229,0.014l-0.961-0.029l-0.588-0.014c-0.105-0.009-0.182-0.014-0.229-0.014
		c-0.21,0-0.315,0.089-0.315,0.266c0,0.178,0.129,0.285,0.387,0.322c0.994,0.134,1.754,0.677,2.28,1.629
		c0.526,0.952,0.789,2.255,0.789,3.91v9.758c0,1.033-0.141,1.782-0.423,2.246c-0.282,0.464-0.824,0.835-1.627,1.112
		c-0.277,0.093-0.411,0.21-0.402,0.35c0.019,0.177,0.153,0.266,0.402,0.266c0.105,0,0.282-0.017,0.531-0.052
		c0.334-0.043,0.688-0.065,1.061-0.065l0.688-0.026l1.463,0.072c0.726,0.038,1.142,0.067,1.248,0.086
		c0.153,0.019,0.296,0.029,0.43,0.029c0.201,0,0.301-0.094,0.301-0.28c0-0.206-0.158-0.327-0.473-0.365
		c-0.755-0.115-1.262-0.292-1.52-0.531c-0.258-0.239-0.421-0.675-0.488-1.306l-0.043-1.019l0.014-0.603v-9.732
		c0-0.431,0.091-0.646,0.272-0.646c0.076,0,0.143,0.029,0.201,0.086l0.143,0.158l12.088,13.823l0.315,0.373
		c0.076,0.076,0.186,0.119,0.33,0.129c0.22,0.009,0.353-0.103,0.401-0.337c0.048-0.234,0.072-0.891,0.072-1.972V18.931
		L106.804,17.984L106.804,17.984L106.804,17.984z M77.713,14.695c0.172-0.149,0.553-0.223,1.145-0.223h2.247
		c1.479,0,2.495,0.072,3.049,0.215c0.553,0.143,0.921,0.43,1.102,0.86c0.115,0.277,0.172,0.569,0.172,0.875v0.373
		c0,0.296,0.093,0.44,0.278,0.43c0.166-0.01,0.273-0.083,0.321-0.221c0.049-0.138,0.098-0.483,0.146-1.036l0.057-0.843
		c0.048-0.629,0.086-1.009,0.115-1.143c0.029-0.133,0.043-0.243,0.043-0.329c0-0.276-0.158-0.414-0.473-0.414
		c-0.124,0-0.315,0.019-0.574,0.057c-0.124,0.019-0.469,0.038-1.032,0.057l-2.036,0.1c-0.899,0.038-1.931,0.057-3.097,0.057
		c-1.921,0-3.566-0.076-4.933-0.229c-0.401-0.048-0.722-0.072-0.961-0.072c-0.43,0-0.645,0.131-0.645,0.393
		c0,0.178,0.139,0.267,0.416,0.267c0.87,0,1.455,0.237,1.757,0.711c0.301,0.474,0.452,1.396,0.452,2.764V29.48l-0.014,0.933
		c0,1.149-0.344,1.819-1.032,2.011l-0.545,0.158c-0.249,0.065-0.373,0.178-0.373,0.337c0,0.206,0.153,0.309,0.459,0.309
		c0.134,0,0.382-0.034,0.746-0.1c0.688-0.115,1.869-0.172,3.542-0.172c1.195,0,2.705,0.086,4.531,0.258
		c0.468,0.038,0.841,0.057,1.118,0.057c1.281,0,2.342-0.514,3.183-1.543c0.698-0.857,1.047-1.596,1.047-2.215
		c0-0.257-0.088-0.381-0.265-0.371c-0.108,0.01-0.215,0.096-0.323,0.258c-1.069,1.692-3.479,2.538-7.231,2.538
		c-1.184,0-1.921-0.1-2.212-0.302c-0.291-0.201-0.437-0.709-0.437-1.523v-5.286l-0.014-0.474c0-0.287,0.079-0.479,0.236-0.575
		c0.157-0.096,0.47-0.144,0.937-0.144h3.162c0.82,0,1.402,0.115,1.746,0.344c0.343,0.229,0.572,0.664,0.687,1.305l0.086,0.402
		C84.334,25.895,84.457,26,84.662,26c0.186,0,0.279-0.119,0.279-0.358c0-0.086-0.01-0.224-0.029-0.415
		c-0.057-0.572-0.086-1.149-0.086-1.731c0-0.763,0.042-1.607,0.128-2.532c0.01-0.143,0.016-0.248,0.016-0.315
		c0-0.248-0.093-0.377-0.279-0.386c-0.196-0.009-0.318,0.105-0.367,0.344c-0.124,0.631-0.263,1.032-0.416,1.204
		c-0.153,0.172-0.488,0.311-1.004,0.416c-0.583,0.115-1.377,0.172-2.38,0.172h-2.208c-0.411,0-0.657-0.045-0.738-0.137
		c-0.081-0.091-0.122-0.357-0.122-0.799V15.68C77.456,15.172,77.542,14.843,77.713,14.695L77.713,14.695L77.713,14.695z
		 M69.938,15.239c0.277,0.206,0.478,0.648,0.602,1.326c0.057,0.306,0.172,0.454,0.344,0.444c0.21-0.019,0.311-0.171,0.301-0.457
		c-0.01-0.143-0.038-0.376-0.086-0.7c-0.048-0.257-0.072-0.666-0.072-1.228c0-0.562-0.055-0.9-0.165-1.014
		c-0.11-0.114-0.428-0.171-0.954-0.171H54.467c-0.325,0-0.538,0.069-0.639,0.207c-0.1,0.138-0.151,0.426-0.151,0.865
		c0,0.448-0.072,1.015-0.215,1.701c-0.115,0.534-0.172,0.9-0.172,1.1c0,0.248,0.086,0.376,0.258,0.386
		c0.172,0.01,0.301-0.172,0.387-0.545c0.191-0.86,0.461-1.446,0.81-1.756c0.349-0.311,0.911-0.466,1.685-0.466h3.8
		c0.363,0,0.595,0.048,0.695,0.144c0.1,0.096,0.151,0.316,0.151,0.661l0.014,0.373v14.233c0,0.804-0.129,1.362-0.387,1.673
		c-0.258,0.311-0.755,0.515-1.491,0.61c-0.316,0.037-0.473,0.131-0.473,0.28c0,0.205,0.144,0.308,0.431,0.308
		c0.096,0,0.417-0.029,0.963-0.086c0.278-0.029,0.618-0.043,1.02-0.043l1.121-0.014l1.049,0.014c0.68,0,1.111,0.014,1.293,0.043
		c0.354,0.057,0.589,0.086,0.704,0.086c0.268,0,0.402-0.103,0.402-0.309c0-0.159-0.167-0.266-0.502-0.322
		c-1.204-0.211-1.831-0.876-1.878-1.996l-0.014-0.56V15.95c0-0.45,0.055-0.732,0.165-0.847c0.11-0.115,0.375-0.172,0.796-0.172
		h4.029C69.121,14.93,69.661,15.033,69.938,15.239L69.938,15.239L69.938,15.239z"/>
	<path class="st1" d="M204.582,1.654c0-0.23,0.048-0.391,0.144-0.483c0.096-0.092,0.265-0.137,0.508-0.137l0.262-0.006l0.832,0.006
		c0.95,0,1.513,0.28,1.688,0.84c0.021,0.064,0.032,0.138,0.032,0.223v0.217c0,0.119,0.044,0.178,0.134,0.178
		c0.162,0,0.243-0.175,0.243-0.526c0-0.068-0.006-0.152-0.019-0.25l-0.064-0.487c-0.004-0.043-0.017-0.199-0.039-0.468
		c-0.012-0.222-0.07-0.333-0.172-0.333c-0.107,0-0.271,0.009-0.493,0.027c-0.601,0.049-1.189,0.074-1.764,0.074l-1.682,0.007
		l-1.1,0.02c-0.286,0-0.556-0.011-0.812-0.032c-0.175-0.013-0.286-0.019-0.333-0.019c-0.145,0-0.217,0.063-0.217,0.189
		c0,0.096,0.055,0.148,0.166,0.156c0.409,0.021,0.721,0.126,0.934,0.313c0.187,0.162,0.281,0.511,0.281,1.047v5.254
		c0,0.511-0.045,0.87-0.134,1.079c-0.09,0.209-0.262,0.355-0.518,0.441c-0.119,0.039-0.179,0.1-0.179,0.182
		c0,0.113,0.07,0.169,0.211,0.169c0.106,0,0.315-0.021,0.627-0.064c0.23-0.03,0.505-0.045,0.824-0.045h0.71
		c0.465,0,0.774,0.009,0.927,0.026c0.162,0.021,0.286,0.032,0.371,0.032c0.094,0,0.141-0.059,0.141-0.176
		c0-0.104-0.068-0.163-0.205-0.176c-0.486-0.038-0.81-0.164-0.972-0.377c-0.221-0.289-0.332-0.753-0.332-1.392V6.409l-0.006-0.511
		c0-0.532,0.048-0.838,0.147-0.919c0.098-0.081,0.466-0.121,1.106-0.121c0.499,0,0.848,0.077,1.049,0.23
		c0.2,0.153,0.343,0.454,0.428,0.902c0.021,0.119,0.072,0.177,0.153,0.173c0.115-0.008,0.173-0.057,0.173-0.147
		c0-0.055-0.004-0.147-0.013-0.274l-0.096-1.206c-0.025-0.332-0.038-0.621-0.038-0.868c0-0.077,0.002-0.143,0.006-0.198
		c0.009-0.081,0.013-0.136,0.013-0.166c0-0.11-0.064-0.166-0.192-0.166c-0.055,0-0.102,0.049-0.14,0.147
		c-0.158,0.396-0.318,0.663-0.48,0.799c-0.162,0.136-0.401,0.205-0.716,0.205l-0.697,0.006l-0.243,0.006
		c-0.179,0-0.3-0.04-0.361-0.121c-0.062-0.081-0.093-0.241-0.093-0.48V1.654L204.582,1.654L204.582,1.654z M197.009,1.635
		c0.405,0.375,0.729,0.881,0.972,1.519c0.243,0.637,0.364,1.291,0.364,1.96c0,1.16-0.262,2.086-0.787,2.778
		c-0.524,0.693-1.223,1.039-2.097,1.039c-0.968,0-1.754-0.419-2.359-1.257c-0.606-0.838-0.908-1.926-0.908-3.264
		c0-1.134,0.24-2.018,0.722-2.654c0.482-0.635,1.151-0.953,2.008-0.953C195.725,0.804,196.42,1.081,197.009,1.635L197.009,1.635
		L197.009,1.635L197.009,1.635z M193.354,0.711c-0.637,0.258-1.163,0.615-1.576,1.072c-0.358,0.388-0.642,0.869-0.851,1.443
		c-0.208,0.574-0.313,1.151-0.313,1.731c0,1.352,0.414,2.433,1.241,3.241c0.827,0.808,1.931,1.213,3.312,1.213
		c1.445,0,2.579-0.465,3.402-1.395c0.844-0.951,1.266-2.112,1.266-3.481c0-1.259-0.409-2.275-1.228-3.049
		c-0.818-0.774-1.893-1.161-3.223-1.161C194.668,0.324,193.991,0.453,193.354,0.711L193.354,0.711L193.354,0.711z M180.504,5.378
		c0.019-0.081,0.074-0.187,0.163-0.319c0.452-0.711,0.949-1.589,1.49-2.632c0.303-0.584,0.553-0.98,0.752-1.188
		c0.198-0.209,0.457-0.351,0.777-0.428c0.153-0.035,0.23-0.098,0.23-0.189c0-0.1-0.058-0.15-0.173-0.15
		c-0.201,0-0.37,0.004-0.506,0.013l-0.539,0.032c-0.17,0.013-0.326,0.019-0.467,0.019c-0.261,0-0.474-0.011-0.641-0.032
		l-0.423-0.058c-0.098-0.013-0.207-0.019-0.327-0.019c-0.111,0-0.166,0.067-0.166,0.202c0,0.087,0.068,0.139,0.204,0.156
		c0.269,0.026,0.508,0.117,0.717,0.274c0.208,0.157,0.313,0.326,0.313,0.504c0,0.213-0.234,0.741-0.7,1.583
		c-0.23,0.409-0.372,0.668-0.427,0.779c-0.221,0.434-0.399,0.651-0.535,0.651s-0.277-0.149-0.422-0.447
		c-0.047-0.102-0.173-0.349-0.377-0.741l-0.499-0.97c-0.312-0.604-0.468-0.996-0.468-1.175c0-0.221,0.165-0.364,0.493-0.428
		c0.145-0.03,0.217-0.091,0.217-0.182c0-0.109-0.089-0.163-0.268-0.163c-0.089,0-0.266,0.013-0.53,0.038
		c-0.357,0.038-0.708,0.058-1.053,0.058c-0.375,0-0.792-0.026-1.251-0.077c-0.226-0.026-0.392-0.038-0.498-0.038
		c-0.119,0-0.179,0.067-0.179,0.202c0,0.108,0.079,0.169,0.237,0.182c0.52,0.051,0.974,0.443,1.362,1.175l0.972,1.826
		c0.268,0.511,0.513,0.949,0.735,1.315c0.188,0.306,0.281,0.602,0.281,0.887v1.219c0,0.57-0.084,0.971-0.252,1.2
		c-0.169,0.23-0.492,0.383-0.969,0.46c-0.119,0.017-0.179,0.065-0.179,0.143c0,0.143,0.049,0.215,0.147,0.215
		c0.081,0,0.208-0.015,0.383-0.045c0.264-0.047,0.794-0.07,1.59-0.07c0.332,0,0.581,0.009,0.747,0.027l0.907,0.081
		c0.119,0.013,0.229,0.02,0.332,0.02c0.191,0,0.287-0.063,0.287-0.189c0-0.113-0.068-0.173-0.205-0.182
		c-0.78-0.043-1.206-0.305-1.279-0.786l-0.031-0.434V5.813C180.476,5.604,180.485,5.459,180.504,5.378L180.504,5.378L180.504,5.378z
		 M170.428,1.293c0.16-0.1,0.564-0.15,1.212-0.15c0.482,0,0.849,0.088,1.103,0.263c0.254,0.176,0.425,0.463,0.515,0.861
		c0.038,0.163,0.106,0.244,0.205,0.244c0.115,0,0.172-0.07,0.172-0.211c0-0.136-0.015-0.318-0.045-0.544
		c-0.038-0.273-0.059-0.445-0.064-0.518l-0.032-0.46c-0.012-0.196-0.136-0.294-0.37-0.294c-0.064,0-0.207,0.004-0.429,0.013
		c-1.121,0.055-2.183,0.083-3.184,0.083l-1.554-0.019l-1.305-0.013c-0.307,0-0.543-0.006-0.709-0.019
		c-0.103-0.009-0.175-0.013-0.218-0.013c-0.162,0-0.251,0.083-0.268,0.249l-0.045,0.39l-0.077,0.569l-0.064,0.556
		c-0.038,0.213-0.06,0.379-0.064,0.499c-0.008,0.132,0.058,0.198,0.198,0.198c0.098,0,0.171-0.088,0.218-0.263l0.051-0.18
		c0.128-0.466,0.229-0.758,0.304-0.876c0.074-0.118,0.225-0.223,0.451-0.318c0.311-0.124,0.893-0.186,1.745-0.186
		c0.363,0,0.544,0.168,0.544,0.505v5.678l0.006,0.301c0,0.379-0.09,0.679-0.272,0.898c-0.181,0.22-0.438,0.34-0.77,0.361
		c-0.128,0.009-0.211,0.027-0.249,0.055c-0.039,0.028-0.06,0.09-0.064,0.185c-0.005,0.113,0.059,0.169,0.191,0.169
		c0.056,0,0.158-0.009,0.307-0.026l1.414-0.083c0.196-0.013,0.417-0.019,0.665-0.019c0.106,0,0.191,0.002,0.255,0.006l0.8,0.051
		l0.479,0.019c0.077,0.004,0.13,0.006,0.16,0.006c0.132,0,0.198-0.05,0.198-0.15c0-0.139-0.076-0.215-0.23-0.228
		c-0.529-0.034-0.897-0.201-1.106-0.502c-0.209-0.3-0.313-0.811-0.313-1.531V2.038C170.189,1.641,170.268,1.393,170.428,1.293
		L170.428,1.293L170.428,1.293z M162.073,1.813c0-0.366,0.044-0.609,0.132-0.728c0.087-0.119,0.284-0.204,0.591-0.256
		c0.085-0.013,0.139-0.032,0.16-0.059c0.021-0.026,0.032-0.078,0.032-0.156c0-0.104-0.07-0.156-0.211-0.156
		c-0.235,0-0.571,0.016-1.01,0.049L161.3,0.544c-0.354,0.029-0.65,0.043-0.889,0.043c-0.362,0-0.62-0.017-0.774-0.051
		c-0.153-0.03-0.268-0.047-0.345-0.051c-0.102-0.004-0.154,0.054-0.154,0.175c0,0.078,0.031,0.133,0.093,0.165
		c0.062,0.032,0.202,0.066,0.419,0.101c0.362,0.055,0.612,0.166,0.748,0.332c0.137,0.166,0.205,0.445,0.205,0.836v5.088
		l-0.007,0.568c0,0.37-0.05,0.635-0.15,0.795c-0.1,0.16-0.304,0.295-0.611,0.405L159.65,9.1l0.013,0.052
		c0.025,0.091,0.085,0.137,0.179,0.137c0.094,0,0.247-0.02,0.46-0.061c0.247-0.045,0.584-0.067,1.011-0.067
		c0.345,0,0.795,0.031,1.349,0.094c0.221,0.022,0.392,0.034,0.511,0.034c0.277,0,0.416-0.063,0.416-0.189
		c0-0.13-0.105-0.195-0.313-0.195c-0.32,0-0.579-0.087-0.777-0.262c-0.199-0.175-0.323-0.426-0.374-0.754l-0.052-0.639V1.813
		L162.073,1.813L162.073,1.813z M152.272,1.047c-0.458,0.473-0.687,1.062-0.687,1.766c0,0.606,0.165,1.091,0.493,1.456
		c0.329,0.365,0.952,0.752,1.87,1.161l0.973,0.434c0.436,0.191,0.742,0.395,0.919,0.612c0.177,0.217,0.266,0.493,0.266,0.829
		c0,0.425-0.17,0.802-0.509,1.132c-0.339,0.329-0.725,0.494-1.156,0.494c-0.555,0-1.091-0.249-1.607-0.746
		c-0.517-0.498-0.88-1.112-1.089-1.844c-0.026-0.102-0.068-0.153-0.128-0.153c-0.132,0-0.198,0.102-0.198,0.307
		c0,0.162,0.081,0.533,0.243,1.113c0.106,0.38,0.17,0.669,0.192,0.87c0.021,0.183,0.048,0.293,0.08,0.329
		c0.032,0.036,0.146,0.074,0.342,0.112c0.14,0.03,0.36,0.094,0.658,0.192c0.64,0.2,1.107,0.301,1.401,0.301
		c0.72,0,1.349-0.275,1.886-0.825c0.537-0.55,0.806-1.196,0.806-1.938c0-0.674-0.194-1.25-0.583-1.727
		c-0.328-0.397-0.999-0.802-2.011-1.215c-0.849-0.345-1.355-0.594-1.517-0.748c-0.252-0.238-0.378-0.52-0.378-0.847
		c0-0.352,0.143-0.658,0.429-0.917c0.286-0.259,0.621-0.389,1.006-0.389c0.559,0,1.088,0.217,1.588,0.651
		c0.5,0.434,0.811,0.948,0.935,1.543c0.034,0.162,0.09,0.242,0.166,0.242c0.107,0,0.16-0.092,0.16-0.275
		c0-0.034-0.004-0.077-0.012-0.128l-0.064-0.582l-0.084-0.627c-0.008-0.072-0.012-0.149-0.012-0.23l0.012-0.518
		c0-0.141-0.044-0.211-0.134-0.211c-0.034,0-0.068,0.009-0.103,0.026l-0.243,0.122c-0.064,0.03-0.126,0.045-0.186,0.045
		c-0.081,0-0.217-0.038-0.409-0.115l-0.428-0.179c-0.384-0.153-0.776-0.23-1.176-0.23C153.301,0.337,152.731,0.574,152.272,1.047
		L152.272,1.047L152.272,1.047z M143.512,1.088c0.109-0.121,0.309-0.182,0.599-0.182c0.649,0,1.185,0.21,1.605,0.63
		c0.421,0.42,0.632,0.952,0.632,1.595c0,0.495-0.156,0.882-0.468,1.164c-0.158,0.145-0.328,0.231-0.51,0.259
		c-0.181,0.028-0.652,0.042-1.413,0.042c-0.264,0-0.432-0.036-0.503-0.109c-0.07-0.072-0.105-0.245-0.105-0.518V1.756
		C143.349,1.432,143.403,1.21,143.512,1.088L143.512,1.088L143.512,1.088z M143.349,5.452c0-0.17,0.032-0.272,0.095-0.306
		l0.288-0.051h0.397c0.336,0,0.579,0.063,0.729,0.189c0.149,0.126,0.338,0.425,0.568,0.898c0.591,1.198,1.072,2.012,1.442,2.443
		c0.37,0.431,0.774,0.646,1.213,0.646c0.269,0,0.579-0.079,0.928-0.237c0.348-0.158,0.523-0.298,0.523-0.422
		c0-0.098-0.038-0.147-0.115-0.147c-0.043,0-0.09,0.006-0.141,0.019c-0.085,0.017-0.177,0.026-0.275,0.026
		c-0.238,0-0.446-0.077-0.623-0.23c-0.177-0.153-0.379-0.428-0.604-0.824l-0.659-1.169l-0.569-1.009
		c-0.077-0.141-0.134-0.241-0.173-0.3c-0.038-0.06-0.06-0.111-0.064-0.153c-0.004-0.051,0.036-0.094,0.122-0.128
		c0.413-0.179,0.738-0.442,0.975-0.787c0.236-0.345,0.355-0.729,0.355-1.152c0-0.67-0.267-1.225-0.8-1.667
		c-0.532-0.442-1.204-0.662-2.014-0.662c-0.273,0-0.769,0.028-1.49,0.083c-0.614,0.047-1.136,0.07-1.566,0.07
		c-0.393,0-0.753-0.017-1.081-0.051c-0.107-0.013-0.183-0.019-0.23-0.019c-0.12,0-0.179,0.061-0.179,0.182
		c0,0.121,0.087,0.195,0.262,0.221c0.473,0.06,0.814,0.232,1.023,0.517c0.128,0.174,0.192,0.517,0.192,1.027v4.619l-0.007,0.249
		V7.93c0,0.311-0.055,0.541-0.166,0.692s-0.311,0.271-0.601,0.36c-0.085,0.026-0.128,0.087-0.128,0.182
		c0,0.117,0.077,0.176,0.23,0.176c0.047,0,0.13-0.006,0.25-0.018l0.428-0.037l0.537-0.049c0.222-0.016,0.476-0.024,0.761-0.024
		c0.341,0,0.695,0.015,1.062,0.045c0.128,0.013,0.215,0.019,0.262,0.019c0.145,0,0.217-0.061,0.217-0.182
		c0-0.121-0.089-0.191-0.268-0.208c-0.439-0.043-0.733-0.207-0.883-0.495c-0.149-0.287-0.223-0.835-0.223-1.644V5.452L143.349,5.452
		L143.349,5.452z M134.116,1.705c0-0.362,0.109-0.578,0.326-0.646l0.435-0.051h0.78c0.691,0,1.191,0.095,1.5,0.286
		c0.309,0.191,0.463,0.498,0.463,0.922c0,0.193,0.041,0.287,0.122,0.283c0.166-0.009,0.249-0.175,0.249-0.499
		c0-0.162-0.017-0.428-0.051-0.799c-0.025-0.251-0.038-0.426-0.038-0.524c0-0.141-0.062-0.211-0.186-0.211
		c-0.025,0-0.055,0.002-0.089,0.006c-0.324,0.038-1.183,0.058-2.577,0.058l-2.424-0.026l-0.646-0.026
		c-0.132,0-0.236-0.002-0.313-0.006c-0.098-0.008-0.162-0.013-0.192-0.013c-0.14,0-0.211,0.05-0.211,0.15
		c0,0.109,0.058,0.172,0.173,0.189c0.49,0.068,0.813,0.187,0.969,0.358c0.155,0.17,0.233,0.494,0.233,0.97v5.063
		c0,0.387-0.023,0.694-0.07,0.919c-0.051,0.268-0.121,0.454-0.208,0.559c-0.087,0.104-0.253,0.203-0.496,0.297
		c-0.098,0.039-0.145,0.098-0.14,0.176c0.008,0.096,0.064,0.144,0.166,0.144c0.077,0,0.202-0.006,0.377-0.019
		c0.635-0.038,1.109-0.058,1.42-0.058c0.464,0,0.833,0.013,1.106,0.038l0.742,0.07c0.332,0.034,0.635,0.051,0.908,0.051
		c0.464,0,0.838-0.072,1.119-0.215c0.281-0.143,0.516-0.382,0.703-0.715c0.226-0.393,0.339-0.799,0.339-1.218
		c0-0.056-0.018-0.101-0.054-0.138c-0.036-0.036-0.076-0.05-0.118-0.042c-0.022,0.004-0.047,0.032-0.077,0.083
		c-0.533,1.053-1.665,1.579-3.396,1.579c-0.204,0-0.356-0.034-0.454-0.102c-0.098-0.068-0.183-0.198-0.255-0.39
		c-0.094-0.264-0.141-0.696-0.141-1.296V6.339c0-0.46,0.013-0.796,0.038-1.009c0.026-0.187,0.076-0.312,0.15-0.373
		c0.075-0.062,0.215-0.093,0.419-0.093h0.435c0.439,0,0.739,0.015,0.899,0.045c0.159,0.03,0.295,0.096,0.406,0.198
		c0.2,0.188,0.328,0.463,0.383,0.825c0.026,0.171,0.092,0.252,0.199,0.243c0.051-0.004,0.085-0.019,0.102-0.045
		c0.013-0.021,0.019-0.062,0.019-0.122l-0.006-0.327c0-0.243-0.013-0.53-0.039-0.859c-0.038-0.504-0.057-0.824-0.057-0.961
		c0-0.077,0.004-0.171,0.012-0.282c0.013-0.154,0.02-0.248,0.02-0.282c0-0.12-0.047-0.177-0.141-0.173
		c-0.09,0.004-0.153,0.045-0.192,0.121L136.61,3.56c-0.23,0.465-0.556,0.697-0.978,0.697h-0.544l-0.281,0.006l-0.192,0.006
		c-0.222,0-0.361-0.053-0.419-0.16c-0.057-0.107-0.086-0.358-0.086-0.755V1.967L134.116,1.705L134.116,1.705L134.116,1.705z
		 M123.122,1.372c0-0.311,0.158-0.494,0.473-0.549c0.179-0.035,0.269-0.102,0.269-0.202c0-0.117-0.06-0.176-0.179-0.176
		c-0.085,0-0.27,0.009-0.555,0.026l-0.671,0.032l-1.072-0.032c-0.289,0-0.543-0.013-0.76-0.038
		c-0.093-0.009-0.157-0.013-0.191-0.013c-0.119,0-0.179,0.059-0.179,0.176c0,0.108,0.086,0.18,0.256,0.215
		c0.298,0.064,0.534,0.221,0.707,0.473c0.172,0.251,0.406,0.769,0.7,1.553c0.247,0.669,0.556,1.425,0.927,2.268l1.516,3.438
		l0.159,0.39l0.147,0.326c0.048,0.102,0.113,0.153,0.195,0.153c0.121,0,0.222-0.096,0.304-0.288c0.03-0.072,0.16-0.345,0.39-0.818
		c0.03-0.055,0.222-0.477,0.576-1.265l1.093-2.409l0.953-2.204c0.29-0.652,0.513-1.081,0.668-1.288
		c0.156-0.207,0.357-0.333,0.605-0.38c0.127-0.026,0.191-0.089,0.191-0.189c0-0.108-0.038-0.163-0.115-0.163
		c-0.059,0-0.144,0.009-0.255,0.026c-0.285,0.051-0.621,0.077-1.008,0.077c-0.128,0-0.343-0.008-0.645-0.026l-0.67-0.038
		c-0.183-0.008-0.302-0.013-0.357-0.013c-0.107,0-0.16,0.05-0.16,0.15c0,0.1,0.075,0.159,0.224,0.176
		c0.345,0.051,0.611,0.161,0.796,0.329c0.186,0.168,0.278,0.384,0.278,0.648c0,0.464-0.237,1.22-0.712,2.268l-1.443,3.194
		c-0.056,0.123-0.107,0.183-0.154,0.179c-0.052-0.004-0.109-0.083-0.174-0.236l-1.427-3.494
		C123.355,2.514,123.122,1.756,123.122,1.372L123.122,1.372L123.122,1.372L123.122,1.372z M117.097,1.813
		c0-0.366,0.043-0.609,0.131-0.728c0.087-0.119,0.284-0.204,0.591-0.256c0.085-0.013,0.139-0.032,0.16-0.059
		c0.021-0.026,0.032-0.078,0.032-0.156c0-0.104-0.07-0.156-0.211-0.156c-0.234,0-0.571,0.016-1.01,0.049l-0.467,0.036
		c-0.354,0.029-0.65,0.043-0.889,0.043c-0.362,0-0.62-0.017-0.774-0.051c-0.153-0.03-0.268-0.047-0.345-0.051
		c-0.102-0.004-0.153,0.054-0.153,0.175c0,0.078,0.03,0.133,0.092,0.165c0.062,0.032,0.202,0.066,0.419,0.101
		c0.362,0.055,0.612,0.166,0.748,0.332c0.137,0.166,0.205,0.445,0.205,0.836v5.088L115.62,7.75c0,0.37-0.051,0.635-0.151,0.795
		c-0.1,0.16-0.304,0.295-0.61,0.405l-0.186,0.15l0.013,0.052c0.025,0.091,0.085,0.137,0.179,0.137c0.094,0,0.247-0.02,0.46-0.061
		c0.248-0.045,0.584-0.067,1.011-0.067c0.345,0,0.795,0.031,1.349,0.094c0.222,0.022,0.392,0.034,0.511,0.034
		c0.278,0,0.416-0.063,0.416-0.189c0-0.13-0.104-0.195-0.313-0.195c-0.32,0-0.579-0.087-0.777-0.262
		c-0.198-0.175-0.323-0.426-0.374-0.754l-0.051-0.639V1.813L117.097,1.813L117.097,1.813z M105.742,1.577l-0.44-0.518
		c-0.247-0.294-0.408-0.47-0.485-0.528c-0.076-0.058-0.18-0.086-0.312-0.086c-0.095,0-0.212,0.006-0.353,0.019
		c-0.381,0.038-0.737,0.058-1.071,0.058l-0.269,0.006l-0.443-0.019c-0.145,0-0.218,0.061-0.218,0.182c0,0.1,0.067,0.154,0.199,0.163
		c0.967,0.068,1.451,0.757,1.451,2.067V5.69l-0.045,1.518c0,0.523-0.071,0.924-0.214,1.202c-0.143,0.279-0.37,0.462-0.681,0.552
		c-0.123,0.035-0.185,0.096-0.185,0.182c0,0.104,0.057,0.156,0.173,0.156c0.068,0,0.177-0.012,0.327-0.037
		c0.337-0.061,0.721-0.091,1.153-0.091c0.435,0,0.833,0.03,1.191,0.09c0.116,0.017,0.199,0.026,0.25,0.026
		c0.133,0,0.199-0.065,0.199-0.195c0-0.095-0.064-0.15-0.192-0.163c-0.69-0.064-1.106-0.334-1.247-0.811
		c-0.132-0.447-0.198-1.333-0.198-2.657V2.984l0.006-0.185c0-0.192,0.051-0.287,0.154-0.287c0.038,0,0.108,0.055,0.21,0.166
		l5.818,6.465c0.08,0.09,0.159,0.136,0.236,0.141c0.086,0.004,0.129-0.053,0.129-0.173l-0.026-0.799l-0.006-0.486l0.006-0.709
		l0.026-0.549l0.091-3.993V2.26c0-0.873,0.275-1.361,0.825-1.463c0.136-0.022,0.204-0.087,0.204-0.195
		c0-0.121-0.068-0.182-0.205-0.182c-0.038,0-0.1,0.004-0.186,0.013c-0.64,0.081-1.108,0.121-1.403,0.121
		c-0.145,0-0.329-0.013-0.551-0.038c-0.341-0.043-0.589-0.064-0.743-0.064c-0.124,0-0.186,0.057-0.186,0.17
		c0,0.091,0.071,0.141,0.211,0.15c0.593,0.043,0.99,0.241,1.193,0.594c0.202,0.353,0.304,1.03,0.304,2.031
		c0,0.852-0.02,1.748-0.058,2.689c-0.008,0.26-0.057,0.39-0.147,0.39c-0.097,0-0.291-0.162-0.58-0.486l-0.217-0.243l-3.382-3.798
		C106.021,1.906,105.917,1.782,105.742,1.577L105.742,1.577L105.742,1.577L105.742,1.577z M97.111,0.583
		c0,0.126,0.083,0.189,0.249,0.189c0.379,0,0.68,0.11,0.902,0.329c0.222,0.22,0.345,0.528,0.371,0.924l0.032,1.311v0.518
		c0,1.181-0.071,2.087-0.214,2.718c-0.143,0.631-0.385,1.111-0.726,1.439c-0.507,0.486-1.172,0.729-1.995,0.729
		c-0.806,0-1.467-0.237-1.982-0.71c-0.341-0.311-0.566-0.685-0.675-1.122C92.965,6.47,92.91,5.736,92.91,4.704l-0.013-1.132
		L93,1.961c0.021-0.413,0.077-0.692,0.166-0.834c0.09-0.143,0.264-0.24,0.524-0.291c0.128-0.026,0.209-0.052,0.243-0.078
		c0.034-0.026,0.051-0.074,0.051-0.143c0-0.125-0.111-0.188-0.332-0.188c-0.089,0-0.236,0.009-0.44,0.026
		c-0.507,0.047-0.968,0.07-1.385,0.07c-0.294,0-0.711-0.026-1.251-0.077c-0.128-0.013-0.215-0.019-0.262-0.019
		c-0.145,0-0.217,0.056-0.217,0.169c0,0.104,0.083,0.169,0.249,0.195c0.26,0.038,0.494,0.107,0.703,0.204
		c0.179,0.085,0.297,0.188,0.355,0.307c0.057,0.119,0.086,0.324,0.086,0.613l0.019,1.163l-0.07,2.473
		c0,1.606,0.407,2.688,1.221,3.246c0.601,0.409,1.445,0.613,2.532,0.613c1.539,0,2.63-0.496,3.274-1.489
		c0.268-0.409,0.464-0.99,0.585-1.744c0.121-0.754,0.182-1.746,0.182-2.978l0.013-0.786l-0.006-0.556
		c0-0.656,0.166-1.012,0.499-1.067l0.243-0.045c0.106-0.017,0.159-0.07,0.159-0.157c0-0.113-0.057-0.17-0.173-0.17
		c-0.064,0-0.135,0.004-0.212,0.013c-0.162,0.021-0.35,0.041-0.564,0.057l-0.628,0.026l-0.679-0.032
		c-0.265-0.013-0.434-0.026-0.506-0.038c-0.068-0.017-0.117-0.023-0.147-0.019C97.152,0.431,97.111,0.483,97.111,0.583L97.111,0.583
		L97.111,0.583L97.111,0.583z M78.967,1.705c0-0.362,0.109-0.578,0.326-0.646l0.435-0.051h0.78c0.691,0,1.19,0.095,1.5,0.286
		c0.309,0.191,0.464,0.498,0.464,0.922c0,0.193,0.04,0.287,0.121,0.283c0.166-0.009,0.249-0.175,0.249-0.499
		c0-0.162-0.017-0.428-0.051-0.799c-0.026-0.251-0.038-0.426-0.038-0.524c0-0.141-0.062-0.211-0.185-0.211
		c-0.026,0-0.055,0.002-0.09,0.006c-0.324,0.038-1.183,0.058-2.577,0.058l-2.424-0.026l-0.646-0.026
		c-0.132,0-0.237-0.002-0.313-0.006c-0.098-0.008-0.162-0.013-0.192-0.013c-0.141,0-0.211,0.05-0.211,0.15
		c0,0.109,0.058,0.172,0.173,0.189c0.49,0.068,0.813,0.187,0.969,0.358c0.156,0.17,0.233,0.494,0.233,0.97v5.063
		c0,0.387-0.023,0.694-0.07,0.919c-0.051,0.268-0.12,0.454-0.208,0.559c-0.087,0.104-0.253,0.203-0.496,0.297
		c-0.098,0.039-0.145,0.098-0.141,0.176c0.008,0.096,0.064,0.144,0.166,0.144c0.077,0,0.202-0.006,0.377-0.019
		c0.635-0.038,1.108-0.058,1.42-0.058c0.465,0,0.833,0.013,1.106,0.038l0.742,0.07c0.333,0.034,0.635,0.051,0.908,0.051
		c0.465,0,0.838-0.072,1.119-0.215c0.281-0.143,0.516-0.382,0.703-0.715c0.226-0.393,0.339-0.799,0.339-1.218
		c0-0.056-0.018-0.101-0.054-0.138c-0.036-0.036-0.076-0.05-0.118-0.042c-0.021,0.004-0.047,0.032-0.077,0.083
		c-0.533,1.053-1.665,1.579-3.396,1.579c-0.205,0-0.356-0.034-0.454-0.102c-0.098-0.068-0.183-0.198-0.256-0.39
		c-0.094-0.264-0.141-0.696-0.141-1.296V6.339c0-0.46,0.013-0.796,0.038-1.009c0.026-0.187,0.076-0.312,0.15-0.373
		c0.075-0.062,0.214-0.093,0.419-0.093h0.435c0.439,0,0.739,0.015,0.898,0.045c0.16,0.03,0.295,0.096,0.406,0.198
		c0.2,0.188,0.328,0.463,0.384,0.825c0.026,0.171,0.092,0.252,0.198,0.243c0.051-0.004,0.085-0.019,0.102-0.045
		c0.013-0.021,0.019-0.062,0.019-0.122l-0.006-0.327c0-0.243-0.013-0.53-0.038-0.859c-0.038-0.504-0.058-0.824-0.058-0.961
		c0-0.077,0.004-0.171,0.013-0.282c0.013-0.154,0.019-0.248,0.019-0.282c0-0.12-0.047-0.177-0.141-0.173
		c-0.09,0.004-0.153,0.045-0.192,0.121L81.461,3.56c-0.23,0.465-0.556,0.697-0.978,0.697h-0.544l-0.281,0.006l-0.192,0.006
		c-0.222,0-0.361-0.053-0.419-0.16c-0.058-0.107-0.086-0.358-0.086-0.755V1.967L78.967,1.705L78.967,1.705L78.967,1.705z
		 M71.162,5.014c0.055,0.087,0.083,0.339,0.083,0.757v1.405L71.239,7.52c0,0.443-0.063,0.773-0.189,0.99
		c-0.126,0.217-0.334,0.349-0.623,0.396c-0.107,0.013-0.16,0.065-0.16,0.156c0,0.143,0.068,0.215,0.205,0.215
		c0.068,0,0.232-0.015,0.492-0.045c0.439-0.047,0.793-0.07,1.062-0.07c0.418,0,0.88,0.03,1.388,0.089
		c0.222,0.026,0.371,0.038,0.448,0.038c0.222,0,0.333-0.067,0.333-0.202c0-0.113-0.079-0.169-0.237-0.169
		c-0.439,0-0.756-0.133-0.95-0.399c-0.194-0.266-0.291-0.701-0.291-1.306V1.729c0-0.549,0.251-0.866,0.755-0.951
		c0.124-0.022,0.186-0.08,0.186-0.176c0-0.117-0.077-0.176-0.23-0.176c-0.158,0-0.39,0.015-0.697,0.045
		c-0.512,0.055-0.848,0.083-1.01,0.083c-0.465,0-0.872-0.027-1.221-0.081c-0.205-0.031-0.345-0.047-0.422-0.047
		c-0.136,0-0.205,0.063-0.205,0.189c0,0.104,0.06,0.167,0.179,0.189l0.294,0.058c0.601,0.111,0.902,0.439,0.902,0.985v1.375
		c0,0.473-0.029,0.762-0.086,0.866c-0.057,0.105-0.216,0.157-0.476,0.157h-2.986c-0.35,0-0.555-0.037-0.617-0.112
		c-0.062-0.074-0.093-0.329-0.093-0.763v-1.64c0-0.549,0.251-0.866,0.755-0.951c0.124-0.022,0.185-0.08,0.185-0.176
		c0-0.117-0.077-0.176-0.23-0.176c-0.158,0-0.39,0.015-0.697,0.045c-0.516,0.055-0.853,0.083-1.01,0.083
		c-0.465,0-0.87-0.027-1.215-0.081c-0.205-0.031-0.345-0.047-0.422-0.047c-0.136,0-0.205,0.063-0.205,0.189
		c0,0.1,0.06,0.163,0.179,0.189c0.456,0.09,0.768,0.208,0.937,0.355c0.168,0.147,0.253,0.376,0.253,0.687v5.329l-0.006,0.345
		c0,0.443-0.063,0.773-0.189,0.99c-0.126,0.217-0.334,0.349-0.624,0.396c-0.107,0.013-0.16,0.065-0.16,0.156
		c0,0.143,0.068,0.215,0.205,0.215c0.068,0,0.232-0.015,0.492-0.045c0.439-0.047,0.791-0.07,1.055-0.07
		c0.422,0,0.885,0.03,1.387,0.089c0.226,0.026,0.377,0.038,0.454,0.038c0.222,0,0.333-0.067,0.333-0.202
		c0-0.113-0.073-0.169-0.217-0.169c-0.448,0-0.77-0.133-0.966-0.399c-0.196-0.266-0.294-0.701-0.294-1.306v-1.59
		c0-0.336,0.035-0.544,0.105-0.622c0.07-0.079,0.257-0.118,0.56-0.118h3.031C70.947,4.883,71.106,4.927,71.162,5.014L71.162,5.014
		L71.162,5.014z M58.912,1.293c0.16-0.1,0.564-0.15,1.212-0.15c0.482,0,0.849,0.088,1.103,0.263
		c0.254,0.176,0.425,0.463,0.515,0.861c0.038,0.163,0.107,0.244,0.205,0.244c0.115,0,0.173-0.07,0.173-0.211
		c0-0.136-0.015-0.318-0.045-0.544c-0.038-0.273-0.06-0.445-0.064-0.518l-0.032-0.46c-0.013-0.196-0.136-0.294-0.371-0.294
		c-0.064,0-0.207,0.004-0.428,0.013c-1.121,0.055-2.183,0.083-3.184,0.083l-1.554-0.019l-1.305-0.013
		c-0.307,0-0.543-0.006-0.71-0.019c-0.102-0.009-0.175-0.013-0.217-0.013c-0.162,0-0.252,0.083-0.269,0.249l-0.045,0.39
		l-0.077,0.569l-0.064,0.556c-0.038,0.213-0.06,0.379-0.064,0.499c-0.009,0.132,0.058,0.198,0.198,0.198
		c0.098,0,0.171-0.088,0.217-0.263l0.051-0.18c0.128-0.466,0.229-0.758,0.304-0.876c0.074-0.118,0.225-0.223,0.451-0.318
		c0.311-0.124,0.893-0.186,1.746-0.186c0.362,0,0.544,0.168,0.544,0.505v5.678l0.006,0.301c0,0.379-0.091,0.679-0.272,0.898
		c-0.181,0.22-0.438,0.34-0.771,0.361c-0.128,0.009-0.211,0.027-0.249,0.055c-0.038,0.028-0.06,0.09-0.064,0.185
		c-0.004,0.113,0.06,0.169,0.192,0.169c0.055,0,0.158-0.009,0.307-0.026L57.764,9.2c0.196-0.013,0.418-0.019,0.665-0.019
		c0.106,0,0.192,0.002,0.256,0.006l0.799,0.051l0.48,0.019c0.077,0.004,0.13,0.006,0.16,0.006c0.132,0,0.198-0.05,0.198-0.15
		c0-0.139-0.077-0.215-0.23-0.228c-0.529-0.034-0.897-0.201-1.106-0.502c-0.209-0.3-0.313-0.811-0.313-1.531V2.038
		C58.672,1.641,58.752,1.393,58.912,1.293L58.912,1.293L58.912,1.293z"/>
	<path class="st1" d="M135.369,39.349c0-0.362,0.109-0.578,0.326-0.646l0.435-0.051h0.78c0.691,0,1.191,0.095,1.5,0.286
		c0.309,0.191,0.464,0.498,0.464,0.922c0,0.193,0.04,0.287,0.121,0.283c0.166-0.009,0.249-0.175,0.249-0.499
		c0-0.162-0.017-0.429-0.051-0.799c-0.025-0.251-0.038-0.426-0.038-0.524c0-0.141-0.062-0.211-0.186-0.211
		c-0.025,0-0.055,0.002-0.089,0.006c-0.324,0.038-1.183,0.057-2.577,0.057l-2.424-0.025l-0.645-0.026
		c-0.133,0-0.237-0.002-0.314-0.006c-0.098-0.008-0.162-0.013-0.192-0.013c-0.14,0-0.211,0.05-0.211,0.15
		c0,0.109,0.058,0.172,0.173,0.189c0.49,0.068,0.813,0.187,0.969,0.357c0.155,0.17,0.233,0.494,0.233,0.97v5.063
		c0,0.387-0.023,0.694-0.07,0.919c-0.051,0.268-0.121,0.454-0.208,0.559c-0.087,0.104-0.252,0.203-0.495,0.297
		c-0.099,0.039-0.145,0.098-0.141,0.176c0.008,0.096,0.064,0.144,0.166,0.144c0.077,0,0.203-0.006,0.377-0.019
		c0.636-0.038,1.109-0.058,1.42-0.058c0.465,0,0.833,0.013,1.106,0.038l0.742,0.07c0.332,0.034,0.635,0.051,0.908,0.051
		c0.465,0,0.838-0.072,1.119-0.215c0.281-0.143,0.516-0.382,0.703-0.715c0.226-0.393,0.339-0.799,0.339-1.218
		c0-0.056-0.018-0.102-0.054-0.138c-0.036-0.036-0.076-0.05-0.118-0.042c-0.022,0.004-0.047,0.032-0.077,0.083
		c-0.533,1.053-1.665,1.579-3.396,1.579c-0.204,0-0.356-0.034-0.454-0.102c-0.098-0.068-0.183-0.198-0.255-0.39
		c-0.094-0.264-0.141-0.696-0.141-1.296v-0.575c0-0.46,0.013-0.796,0.038-1.009c0.026-0.187,0.076-0.312,0.151-0.373
		c0.074-0.062,0.214-0.093,0.418-0.093h0.435c0.439,0,0.739,0.015,0.899,0.045c0.16,0.03,0.295,0.096,0.406,0.198
		c0.2,0.188,0.328,0.463,0.383,0.825c0.026,0.171,0.092,0.252,0.199,0.243c0.051-0.004,0.085-0.019,0.102-0.045
		c0.013-0.021,0.019-0.062,0.019-0.122l-0.006-0.327c0-0.243-0.013-0.53-0.039-0.859c-0.038-0.504-0.057-0.825-0.057-0.961
		c0-0.077,0.004-0.171,0.013-0.282c0.012-0.154,0.019-0.248,0.019-0.282c0-0.12-0.047-0.177-0.141-0.173
		c-0.089,0.004-0.153,0.045-0.192,0.121l-0.147,0.313c-0.23,0.465-0.556,0.697-0.978,0.697h-0.544l-0.281,0.006l-0.192,0.006
		c-0.222,0-0.361-0.053-0.419-0.16c-0.057-0.107-0.086-0.358-0.086-0.754v-1.388L135.369,39.349L135.369,39.349L135.369,39.349z
		 M126.571,39.341c0-0.562,0.215-0.858,0.646-0.887c0.183-0.009,0.275-0.065,0.275-0.169c0-0.121-0.128-0.182-0.384-0.182
		c-0.346,0-0.686,0.017-1.019,0.051c-0.448,0.051-0.775,0.077-0.98,0.077c-0.128,0-0.322-0.013-0.583-0.038l-0.275-0.019
		c-0.107-0.013-0.19-0.021-0.25-0.025c-0.081-0.013-0.143-0.019-0.186-0.019c-0.128,0-0.192,0.065-0.192,0.195
		c0,0.104,0.081,0.169,0.243,0.195l0.384,0.064c0.567,0.089,0.85,0.474,0.85,1.155v5.333c0,0.498-0.052,0.856-0.156,1.075
		c-0.105,0.219-0.294,0.367-0.566,0.443c-0.111,0.031-0.167,0.085-0.167,0.163c0,0.113,0.062,0.17,0.186,0.17
		c0.06,0,0.177-0.01,0.352-0.03c0.571-0.065,1.104-0.097,1.598-0.097c0.299,0,0.565,0.006,0.8,0.019l0.697,0.032
		c0.434,0.026,0.69,0.04,0.767,0.045c0.294,0.021,0.496,0.032,0.607,0.032c0.537,0,0.962-0.188,1.273-0.563
		c0.354-0.426,0.531-0.91,0.531-1.452c0-0.175-0.039-0.262-0.117-0.262c-0.048,0-0.164,0.13-0.35,0.389
		c-0.604,0.849-1.628,1.274-3.072,1.274c-0.311,0-0.519-0.028-0.625-0.083c-0.191-0.098-0.287-0.545-0.287-1.341V39.341
		L126.571,39.341L126.571,39.341z M117.773,39.341c0-0.562,0.215-0.858,0.646-0.887c0.183-0.009,0.274-0.065,0.274-0.169
		c0-0.121-0.128-0.182-0.384-0.182c-0.346,0-0.685,0.017-1.018,0.051c-0.449,0.051-0.775,0.077-0.98,0.077
		c-0.128,0-0.323-0.013-0.583-0.038l-0.276-0.019c-0.106-0.013-0.19-0.021-0.249-0.025c-0.081-0.013-0.143-0.019-0.186-0.019
		c-0.128,0-0.192,0.065-0.192,0.195c0,0.104,0.081,0.169,0.243,0.195l0.383,0.064c0.567,0.089,0.851,0.474,0.851,1.155v5.333
		c0,0.498-0.052,0.856-0.157,1.075c-0.104,0.219-0.293,0.367-0.566,0.443c-0.111,0.031-0.166,0.085-0.166,0.163
		c0,0.113,0.062,0.17,0.186,0.17c0.059,0,0.176-0.01,0.351-0.03c0.571-0.065,1.104-0.097,1.599-0.097
		c0.298,0,0.565,0.006,0.799,0.019l0.697,0.032c0.435,0.026,0.691,0.04,0.767,0.045c0.295,0.021,0.497,0.032,0.608,0.032
		c0.537,0,0.961-0.188,1.272-0.563c0.354-0.426,0.531-0.91,0.531-1.452c0-0.175-0.039-0.262-0.116-0.262
		c-0.048,0-0.165,0.13-0.351,0.389c-0.603,0.849-1.627,1.274-3.072,1.274c-0.31,0-0.518-0.028-0.625-0.083
		c-0.191-0.098-0.286-0.545-0.286-1.341V39.341L117.773,39.341L117.773,39.341z M111.521,39.457c0-0.366,0.044-0.609,0.132-0.728
		c0.087-0.119,0.284-0.204,0.591-0.256c0.085-0.013,0.139-0.032,0.16-0.059c0.021-0.026,0.032-0.078,0.032-0.156
		c0-0.104-0.07-0.156-0.211-0.156c-0.235,0-0.571,0.016-1.01,0.049l-0.467,0.037c-0.354,0.029-0.65,0.043-0.889,0.043
		c-0.362,0-0.62-0.017-0.774-0.051c-0.153-0.03-0.268-0.047-0.345-0.051c-0.102-0.004-0.154,0.054-0.154,0.175
		c0,0.078,0.031,0.133,0.093,0.165s0.202,0.066,0.419,0.101c0.362,0.055,0.612,0.166,0.748,0.332
		c0.136,0.166,0.205,0.445,0.205,0.836v5.088l-0.007,0.568c0,0.37-0.05,0.635-0.15,0.795c-0.1,0.16-0.304,0.295-0.611,0.405
		l-0.185,0.15l0.013,0.052c0.025,0.091,0.085,0.137,0.179,0.137c0.094,0,0.247-0.02,0.46-0.061c0.247-0.044,0.584-0.067,1.011-0.067
		c0.345,0,0.795,0.031,1.349,0.094c0.221,0.022,0.392,0.034,0.511,0.034c0.277,0,0.416-0.063,0.416-0.189
		c0-0.13-0.105-0.195-0.313-0.195c-0.32,0-0.579-0.087-0.777-0.262c-0.199-0.175-0.323-0.426-0.374-0.754l-0.052-0.639V39.457
		L111.521,39.457L111.521,39.457z M100.618,39.016c0-0.311,0.157-0.494,0.473-0.549c0.179-0.035,0.268-0.102,0.268-0.202
		c0-0.117-0.059-0.176-0.178-0.176c-0.086,0-0.271,0.009-0.556,0.026l-0.67,0.032l-1.072-0.032c-0.289,0-0.543-0.013-0.76-0.038
		c-0.094-0.009-0.157-0.013-0.191-0.013c-0.119,0-0.179,0.059-0.179,0.176c0,0.108,0.085,0.18,0.256,0.215
		c0.298,0.064,0.534,0.221,0.707,0.473c0.173,0.251,0.406,0.769,0.7,1.553c0.247,0.669,0.556,1.425,0.928,2.268l1.515,3.438
		l0.16,0.39l0.147,0.326c0.047,0.102,0.112,0.153,0.194,0.153c0.121,0,0.223-0.096,0.305-0.288c0.03-0.072,0.16-0.345,0.39-0.818
		c0.03-0.055,0.221-0.477,0.575-1.265l1.094-2.409l0.953-2.204c0.289-0.652,0.512-1.081,0.668-1.288
		c0.155-0.207,0.357-0.333,0.604-0.38c0.128-0.026,0.192-0.089,0.192-0.189c0-0.108-0.038-0.163-0.115-0.163
		c-0.06,0-0.145,0.009-0.255,0.026c-0.285,0.051-0.621,0.077-1.009,0.077c-0.127,0-0.342-0.008-0.644-0.026l-0.67-0.038
		c-0.183-0.008-0.302-0.013-0.358-0.013c-0.106,0-0.159,0.05-0.159,0.15c0,0.1,0.074,0.159,0.224,0.176
		c0.345,0.051,0.61,0.161,0.796,0.329c0.185,0.168,0.278,0.384,0.278,0.648c0,0.464-0.237,1.22-0.712,2.268l-1.444,3.194
		c-0.055,0.123-0.107,0.183-0.154,0.179c-0.051-0.004-0.109-0.083-0.173-0.236l-1.427-3.494
		C100.851,40.157,100.618,39.399,100.618,39.016L100.618,39.016L100.618,39.016L100.618,39.016z M92.62,38.284
		c-0.009,0.113,0.064,0.18,0.217,0.202l0.288,0.045c0.354,0.047,0.531,0.211,0.531,0.492c0,0.149-0.044,0.294-0.132,0.434
		c-0.088,0.14-0.307,0.413-0.657,0.817L92.2,41.065l-0.295,0.345c-0.068,0.077-0.124,0.117-0.167,0.121
		c-0.073,0.004-0.176-0.089-0.308-0.281l-0.462-0.67l-0.443-0.607c-0.291-0.46-0.448-0.813-0.469-1.06
		c-0.009-0.106,0.038-0.206,0.141-0.3c0.102-0.094,0.228-0.151,0.377-0.172c0.153-0.017,0.23-0.085,0.23-0.202
		c0-0.113-0.066-0.169-0.198-0.169c-0.094,0-0.23,0.009-0.409,0.026l-0.594,0.064c-0.234,0.026-0.511,0.038-0.83,0.038
		c-0.336,0-0.853-0.026-1.551-0.077c-0.166-0.013-0.285-0.019-0.358-0.019c-0.136,0-0.204,0.063-0.204,0.188
		c0,0.113,0.081,0.184,0.243,0.214c0.401,0.077,0.725,0.236,0.972,0.479c0.247,0.243,0.769,0.919,1.565,2.03
		c0.281,0.396,0.526,0.73,0.734,1.002c0.319,0.417,0.479,0.67,0.479,0.76s-0.158,0.304-0.473,0.645
		c-0.209,0.221-0.558,0.626-1.047,1.213c-0.562,0.677-1.007,1.151-1.335,1.424c-0.328,0.272-0.659,0.443-0.991,0.511
		c-0.115,0.026-0.17,0.083-0.166,0.17c0.004,0.056,0.023,0.093,0.058,0.111l0.173,0.033l0.288-0.013l0.57-0.019
		c0.243-0.013,0.438-0.019,0.583-0.019c0.521,0,1.04,0.025,1.557,0.077c0.115,0.013,0.196,0.019,0.243,0.019
		c0.09,0,0.135-0.054,0.135-0.163c0-0.109-0.07-0.167-0.211-0.176c-0.665-0.051-0.997-0.251-0.997-0.6
		c0-0.323,0.486-1.036,1.458-2.139c0.153-0.179,0.284-0.33,0.395-0.453c0.068-0.077,0.119-0.115,0.153-0.115
		c0.03,0,0.073,0.038,0.129,0.115l0.321,0.415c0.544,0.702,0.921,1.217,1.13,1.545c0.21,0.328,0.315,0.568,0.315,0.721
		c0,0.294-0.173,0.453-0.518,0.479c-0.158,0.013-0.237,0.08-0.237,0.202c0,0.104,0.072,0.156,0.217,0.156
		c0.106,0,0.279-0.006,0.517-0.019l0.702-0.045c0.179-0.013,0.366-0.019,0.562-0.019c0.285,0,0.622,0.015,1.009,0.045l0.804,0.064
		c0.119,0.008,0.213,0.013,0.281,0.013c0.153,0,0.23-0.059,0.23-0.175c0-0.13-0.075-0.202-0.224-0.215
		c-0.469-0.034-0.859-0.204-1.17-0.511c-0.494-0.489-1.092-1.236-1.795-2.241c-0.443-0.638-0.722-1.03-0.837-1.175
		c-0.247-0.315-0.371-0.511-0.371-0.587c0-0.072,0.096-0.213,0.287-0.421c0.047-0.051,0.326-0.381,0.837-0.99
		c0.69-0.826,1.308-1.453,1.853-1.884c0.188-0.149,0.471-0.253,0.85-0.313c0.141-0.022,0.211-0.089,0.211-0.202
		c0-0.113-0.06-0.169-0.179-0.169c-0.106,0-0.24,0.006-0.402,0.019l-0.785,0.058c-0.204,0.013-0.398,0.019-0.581,0.019
		c-0.349,0-0.725-0.015-1.13-0.045c-0.106-0.009-0.183-0.013-0.23-0.013C92.707,38.108,92.632,38.167,92.62,38.284L92.62,38.284
		L92.62,38.284L92.62,38.284z M83.039,39.278c0.405,0.375,0.729,0.882,0.972,1.519c0.243,0.637,0.365,1.291,0.365,1.96
		c0,1.16-0.262,2.086-0.786,2.778c-0.524,0.693-1.224,1.039-2.097,1.039c-0.968,0-1.754-0.419-2.36-1.257
		c-0.605-0.838-0.908-1.926-0.908-3.264c0-1.134,0.241-2.018,0.723-2.654c0.482-0.635,1.151-0.953,2.008-0.953
		C81.755,38.447,82.45,38.724,83.039,39.278L83.039,39.278L83.039,39.278L83.039,39.278z M79.384,38.355
		c-0.637,0.258-1.163,0.615-1.576,1.072c-0.358,0.388-0.642,0.869-0.851,1.443c-0.209,0.574-0.313,1.151-0.313,1.731
		c0,1.352,0.413,2.433,1.241,3.241c0.827,0.808,1.931,1.213,3.312,1.213c1.445,0,2.579-0.465,3.402-1.395
		c0.844-0.951,1.266-2.112,1.266-3.481c0-1.258-0.409-2.275-1.228-3.049c-0.818-0.774-1.893-1.161-3.223-1.161
		C80.698,37.968,80.021,38.097,79.384,38.355L79.384,38.355L79.384,38.355z M68.87,39.221l-0.44-0.518
		c-0.247-0.294-0.408-0.47-0.485-0.527c-0.077-0.058-0.181-0.086-0.313-0.086c-0.094,0-0.212,0.006-0.353,0.019
		c-0.38,0.038-0.737,0.058-1.071,0.058l-0.269,0.006l-0.442-0.019c-0.145,0-0.218,0.061-0.218,0.182c0,0.1,0.066,0.154,0.198,0.163
		c0.968,0.068,1.452,0.757,1.452,2.067v2.769l-0.045,1.518c0,0.523-0.072,0.924-0.214,1.203c-0.143,0.279-0.37,0.462-0.681,0.552
		c-0.124,0.035-0.185,0.096-0.185,0.182c0,0.104,0.058,0.156,0.173,0.156c0.068,0,0.177-0.012,0.327-0.037
		c0.337-0.061,0.722-0.091,1.153-0.091c0.436,0,0.833,0.03,1.192,0.09c0.115,0.017,0.199,0.026,0.25,0.026
		c0.132,0,0.199-0.065,0.199-0.195c0-0.095-0.064-0.15-0.192-0.163c-0.691-0.064-1.106-0.334-1.247-0.811
		c-0.132-0.447-0.198-1.333-0.198-2.657v-2.479l0.006-0.185c0-0.192,0.051-0.288,0.153-0.288c0.038,0,0.109,0.056,0.211,0.166
		l5.817,6.465c0.081,0.09,0.16,0.136,0.236,0.141c0.086,0.004,0.129-0.053,0.129-0.173l-0.026-0.799l-0.007-0.486l0.007-0.709
		l0.026-0.549l0.091-3.993v-0.313c0-0.873,0.275-1.361,0.825-1.463c0.136-0.022,0.205-0.087,0.205-0.195
		c0-0.121-0.068-0.182-0.205-0.182c-0.038,0-0.1,0.004-0.186,0.013c-0.641,0.081-1.108,0.121-1.403,0.121
		c-0.145,0-0.329-0.013-0.551-0.038c-0.342-0.042-0.589-0.064-0.743-0.064c-0.124,0-0.186,0.056-0.186,0.17
		c0,0.091,0.07,0.141,0.211,0.15c0.592,0.043,0.99,0.241,1.193,0.594c0.202,0.353,0.304,1.03,0.304,2.031
		c0,0.852-0.019,1.748-0.057,2.689c-0.008,0.26-0.058,0.39-0.147,0.39c-0.098,0-0.291-0.162-0.581-0.486l-0.217-0.243l-3.382-3.798
		C69.148,39.549,69.044,39.426,68.87,39.221L68.87,39.221L68.87,39.221L68.87,39.221z M57.375,39.784
		c0-0.495,0.045-0.815,0.134-0.962c0.09-0.147,0.318-0.27,0.684-0.368c0.107-0.026,0.16-0.078,0.16-0.157
		c0-0.117-0.062-0.174-0.185-0.169c-0.077,0.004-0.171,0.013-0.281,0.026c-0.401,0.043-0.85,0.064-1.349,0.064
		c-0.584,0-1.098-0.023-1.541-0.07c-0.107-0.013-0.213-0.019-0.32-0.019c-0.119,0-0.179,0.05-0.179,0.149
		c0,0.1,0.012,0.163,0.035,0.189c0.023,0.026,0.086,0.045,0.189,0.058c0.333,0.034,0.587,0.111,0.764,0.23
		c0.177,0.119,0.297,0.294,0.361,0.523l0.057,0.364l-0.006,0.249v5.127c0,0.541-0.059,0.923-0.176,1.146
		c-0.117,0.223-0.329,0.359-0.636,0.405c-0.111,0.022-0.166,0.074-0.166,0.158c0,0.125,0.083,0.188,0.249,0.188
		c0.166,0,0.386-0.013,0.659-0.038c0.426-0.042,0.878-0.064,1.356-0.064c0.358,0,0.652,0.019,0.882,0.057
		c0.188,0.034,0.322,0.051,0.403,0.051c0.141,0,0.211-0.065,0.211-0.195c0-0.113-0.117-0.178-0.352-0.195
		c-0.354-0.025-0.602-0.184-0.745-0.475c-0.143-0.291-0.214-0.782-0.214-1.471v-0.275c0-0.37,0.014-0.614,0.042-0.731
		c0.028-0.117,0.097-0.231,0.208-0.342l0.275-0.268l0.192-0.185c0.077-0.077,0.141-0.115,0.192-0.115
		c0.077,0,0.175,0.098,0.294,0.294c0.137,0.234,0.495,0.736,1.074,1.506c0.579,0.77,1.053,1.374,1.42,1.813
		c0.145,0.179,0.225,0.279,0.242,0.301c0.179,0.222,0.379,0.332,0.6,0.332c0.064,0,0.234-0.017,0.511-0.051
		c0.149-0.017,0.291-0.025,0.428-0.025c0.289,0,0.642,0.021,1.059,0.064c0.077,0.008,0.138,0.013,0.185,0.013
		c0.128,0,0.194-0.052,0.198-0.156c0.004-0.108-0.047-0.178-0.154-0.208l-0.134-0.039c-0.614-0.17-1.089-0.426-1.426-0.766
		c-0.478-0.485-1.252-1.46-2.32-2.924l-0.461-0.626c-0.192-0.268-0.288-0.453-0.288-0.556c0-0.145,0.18-0.368,0.539-0.67
		c0.12-0.102,0.342-0.306,0.667-0.613c0.701-0.66,1.241-1.124,1.621-1.392c0.379-0.268,0.718-0.426,1.017-0.473
		c0.188-0.03,0.281-0.093,0.281-0.189c0-0.126-0.075-0.189-0.224-0.189c-0.171,0-0.474,0.026-0.91,0.077
		c-0.201,0.021-0.37,0.032-0.506,0.032c-0.184,0-0.504-0.026-0.961-0.077c-0.184-0.021-0.363-0.032-0.538-0.032
		c-0.158,0-0.237,0.054-0.237,0.163c0,0.117,0.068,0.176,0.205,0.176c0.183,0,0.33,0.038,0.441,0.115
		c0.111,0.077,0.166,0.179,0.166,0.307c0,0.384-0.587,1.102-1.762,2.155l-0.894,0.793l-0.626,0.563
		c-0.166,0.128-0.268,0.192-0.306,0.192c-0.072-0.004-0.109-0.085-0.109-0.243v-2.321L57.375,39.784L57.375,39.784L57.375,39.784z"
		/>
	<polygon class="st2" points="46.64,46.809 46.64,0.226 0.056,0.226 0.056,46.809 46.64,46.809 46.64,46.809 	"/>
	<path class="st3" d="M40.76,6.101v11.754h-4.353c0-2.164-2.143-3.918-4.788-3.918c-1.932,0-3.597,0.937-4.353,2.286v14.69
		c0,3.121,2.429,5.652,5.428,5.658h0.014v4.353H13.989v-4.353h0.013c2.999-0.007,5.429-2.538,5.429-5.658v-14.69
		c-0.757-1.349-2.421-2.286-4.354-2.286c-2.644,0-4.788,1.753-4.788,3.918H5.935V6.101H40.76L40.76,6.101L40.76,6.101z"/>
	<path class="st1" d="M0,66.217v-5.124h0.651v5.061c0,2.067,1.115,3.257,2.969,3.257c1.779,0,2.919-1.077,2.919-3.194v-5.124h0.651
		v5.049C7.191,68.659,5.725,70,3.595,70C1.491,70,0,68.672,0,66.217L0,66.217z"/>
	<polygon class="st1" points="9.71,61.093 10.324,61.093 16.374,68.723 16.374,61.093 17.001,61.093 17.001,69.862 16.513,69.862 
		10.336,62.07 10.336,69.862 9.71,69.862 9.71,61.093 	"/>
	<polygon class="st1" points="19.653,61.093 20.305,61.093 20.305,69.862 19.653,69.862 19.653,61.093 	"/>
	<polygon class="st1" points="22.059,61.093 22.786,61.093 26.218,69.161 29.663,61.093 30.352,61.093 26.494,69.925 25.918,69.925 
		22.059,61.093 	"/>
	<polygon class="st1" points="32.019,61.093 38.258,61.093 38.258,61.694 32.671,61.694 32.671,65.14 37.695,65.14 37.695,65.741 
		32.671,65.741 32.671,69.261 38.321,69.261 38.321,69.862 32.019,69.862 32.019,61.093 	"/>
	<path class="st1" d="M43.835,65.641c1.466,0,2.556-0.739,2.556-2.005v-0.025c0-1.178-0.927-1.917-2.518-1.917h-2.994v3.946H43.835
		L43.835,65.641z M40.227,61.093h3.683c1.078,0,1.942,0.339,2.468,0.864c0.414,0.414,0.664,1.003,0.664,1.629v0.025
		c0,1.466-1.09,2.305-2.568,2.505l2.894,3.746H46.54l-2.793-3.633h-2.869v3.633h-0.651V61.093L40.227,61.093z"/>
	<path class="st1" d="M48.534,68.585l0.426-0.489c0.965,0.89,1.854,1.303,3.144,1.303c1.315,0,2.217-0.739,2.217-1.741v-0.024
		c0-0.928-0.489-1.466-2.481-1.867c-2.104-0.426-2.956-1.14-2.956-2.468v-0.025c0-1.303,1.19-2.305,2.819-2.305
		c1.278,0,2.117,0.351,3.006,1.064l-0.413,0.514c-0.827-0.714-1.654-0.989-2.619-0.989c-1.29,0-2.142,0.739-2.142,1.653v0.025
		c0,0.927,0.476,1.49,2.556,1.917c2.029,0.413,2.881,1.14,2.881,2.417v0.025c0,1.416-1.215,2.393-2.906,2.393
		C50.663,69.987,49.586,69.524,48.534,68.585L48.534,68.585z"/>
	<polygon class="st1" points="57.016,61.093 57.667,61.093 57.667,69.862 57.016,69.862 57.016,61.093 	"/>
	<polygon class="st1" points="62.598,61.694 59.54,61.694 59.54,61.093 66.306,61.093 66.306,61.694 63.249,61.694 63.249,69.862 
		62.598,69.862 62.598,61.694 	"/>
	<polygon class="st1" points="71.38,66.393 67.622,61.093 68.436,61.093 71.719,65.804 75.013,61.093 75.79,61.093 72.032,66.38 
		72.032,69.862 71.38,69.862 71.38,66.393 	"/>
	<polygon class="st1" points="80.786,61.093 81.437,61.093 81.437,69.261 86.586,69.261 86.586,69.862 80.786,69.862 80.786,61.093 
			"/>
	<polygon class="st1" points="88.404,61.093 89.056,61.093 89.056,69.862 88.404,69.862 88.404,61.093 	"/>
	<path class="st1" d="M95.272,65.741h-2.969v3.52h3.182c1.503,0,2.455-0.688,2.455-1.791v-0.025
		C97.94,66.367,97,65.741,95.272,65.741L95.272,65.741z M97.452,63.311c0-0.965-0.789-1.616-2.192-1.616h-2.957v3.445h2.894
		c1.315,0,2.255-0.639,2.255-1.804V63.311L97.452,63.311z M91.651,61.093h3.621c0.99,0,1.792,0.288,2.28,0.777
		c0.363,0.363,0.564,0.826,0.564,1.378v0.024c0,1.19-0.777,1.792-1.491,2.08c1.052,0.275,1.979,0.877,1.979,2.092v0.025
		c0,1.466-1.252,2.393-3.144,2.393h-3.809V61.093L91.651,61.093z"/>
	<path class="st1" d="M104.318,65.641c1.465,0,2.556-0.739,2.556-2.005v-0.025c0-1.178-0.928-1.917-2.519-1.917h-2.994v3.946
		H104.318L104.318,65.641z M100.71,61.093h3.683c1.078,0,1.942,0.339,2.468,0.864c0.413,0.414,0.664,1.003,0.664,1.629v0.025
		c0,1.466-1.089,2.305-2.568,2.505l2.894,3.746h-0.827l-2.794-3.633h-2.869v3.633h-0.651V61.093L100.71,61.093z"/>
	<path class="st1" d="M115.918,66.818l-2.306-5.074l-2.317,5.074H115.918L115.918,66.818z M113.312,61.03h0.626l4.084,8.832h-0.713
		l-1.116-2.455h-5.173l-1.116,2.455h-0.676L113.312,61.03L113.312,61.03z"/>
	<path class="st1" d="M123.386,65.641c1.466,0,2.555-0.739,2.555-2.005v-0.025c0-1.178-0.927-1.917-2.518-1.917h-2.994v3.946
		H123.386L123.386,65.641z M119.777,61.093h3.684c1.077,0,1.941,0.339,2.468,0.864c0.413,0.414,0.664,1.003,0.664,1.629v0.025
		c0,1.466-1.09,2.305-2.569,2.505l2.894,3.746h-0.827l-2.793-3.633h-2.869v3.633h-0.652V61.093L119.777,61.093z"/>
	<polygon class="st1" points="128.824,61.093 129.476,61.093 129.476,69.862 128.824,69.862 128.824,61.093 	"/>
	<polygon class="st1" points="132.068,61.093 138.308,61.093 138.308,61.694 132.72,61.694 132.72,65.14 137.743,65.14 
		137.743,65.741 132.72,65.741 132.72,69.261 138.37,69.261 138.37,69.862 132.068,69.862 132.068,61.093 	"/>
	<path class="st1" d="M139.674,68.585l0.426-0.489c0.964,0.89,1.854,1.303,3.144,1.303c1.316,0,2.217-0.739,2.217-1.741v-0.024
		c0-0.928-0.488-1.466-2.481-1.867c-2.104-0.426-2.956-1.14-2.956-2.468v-0.025c0-1.303,1.191-2.305,2.819-2.305
		c1.278,0,2.117,0.351,3.007,1.064l-0.413,0.514c-0.828-0.714-1.655-0.989-2.619-0.989c-1.291,0-2.142,0.739-2.142,1.653v0.025
		c0,0.927,0.476,1.49,2.555,1.917c2.03,0.413,2.882,1.14,2.882,2.417v0.025c0,1.416-1.216,2.393-2.907,2.393
		C141.804,69.987,140.726,69.524,139.674,68.585L139.674,68.585z"/>
</g>
</svg>
