<?xml version="1.0" encoding="utf-8"?>
<!-- Generator: Adobe Illustrator 22.1.0, SVG Export Plug-In . SVG Version: 6.00 Build 0)  -->
<svg version="1.1" id="Layer_1" xmlns="http://www.w3.org/2000/svg" xmlns:xlink="http://www.w3.org/1999/xlink" x="0px" y="0px"
	 viewBox="0 0 166.64 25" style="enable-background:new 0 0 166.64 25;" xml:space="preserve">
<style type="text/css">
	.st0{fill:#FF8200;}
	.st1{fill:#FFFFFF;}
	.st2{fill:#58595B;}
</style>
<g>
	<polygon class="st0" points="25,25 25,0 0,0 0,25 25,25 	"/>
	<path class="st1" d="M21.845,3.153v6.308h-2.336c0-1.162-1.15-2.102-2.57-2.102c-1.037,0-1.93,0.503-2.336,1.227v7.884
		c0,1.675,1.303,3.033,2.913,3.037h0.007v2.336H7.478v-2.336h0.007c1.609-0.004,2.913-1.362,2.913-3.037V8.585
		C9.991,7.861,9.099,7.358,8.061,7.358c-1.419,0-2.57,0.941-2.57,2.102H3.155V3.153H21.845L21.845,3.153z"/>
	<g>
		<path class="st2" d="M31.135,3.201h1.403v17.59h11.087v1.295h-12.49V3.201z"/>
		<path class="st2" d="M46.863,3.201h1.403v18.885h-1.403V3.201z"/>
	</g>
	<g>
		<path class="st2" d="M53.289,3.201h7.797c2.131,0,3.857,0.621,4.91,1.673c0.783,0.782,1.214,1.78,1.214,2.967v0.054
			c0,2.563-1.672,3.858-3.21,4.478c2.266,0.593,4.262,1.889,4.262,4.505v0.054c0,3.156-2.697,5.153-6.771,5.153h-8.201V3.201z
			 M65.779,7.976c0-2.077-1.7-3.48-4.721-3.48h-6.367v7.419h6.232c2.832,0,4.855-1.376,4.855-3.885V7.976z M61.086,13.21h-6.394
			v7.581h6.852c3.237,0,5.287-1.484,5.287-3.858v-0.054C66.832,14.559,64.808,13.21,61.086,13.21z"/>
		<path class="st2" d="M72.147,3.201h7.931c2.32,0,4.182,0.729,5.314,1.862c0.89,0.89,1.43,2.158,1.43,3.507v0.054
			c0,3.156-2.347,4.964-5.53,5.395l6.232,8.067h-1.781l-6.016-7.823H73.55v7.823h-1.403V3.201z M79.917,12.994
			c3.156,0,5.503-1.591,5.503-4.316V8.624c0-2.536-1.997-4.128-5.423-4.128H73.55v8.497H79.917z"/>
	</g>
	<g>
		<path class="st2" d="M98.635,3.066h1.349l8.794,19.019h-1.537l-2.401-5.288H93.698l-2.401,5.288H89.84L98.635,3.066z
			 M104.247,15.53L99.283,4.604L94.291,15.53H104.247z"/>
		<path class="st2" d="M111.91,3.201h7.931c2.32,0,4.182,0.729,5.314,1.862c0.891,0.89,1.43,2.158,1.43,3.507v0.054
			c0,3.156-2.347,4.964-5.53,5.395l6.232,8.067h-1.781l-6.015-7.823h-6.178v7.823h-1.403V3.201z M119.679,12.994
			c3.157,0,5.503-1.591,5.503-4.316V8.624c0-2.536-1.996-4.128-5.422-4.128h-6.447v8.497H119.679z"/>
		<path class="st2" d="M130.741,3.201h1.403v18.885h-1.403V3.201z"/>
		<path class="st2" d="M137.081,3.201h13.435v1.295h-12.032v7.419h10.817v1.295h-10.817v7.581h12.166v1.295h-13.569V3.201z"/>
	</g>
	<g>
		<path class="st2" d="M152.773,19.334l0.917-1.052c2.077,1.915,3.993,2.806,6.772,2.806c2.833,0,4.775-1.591,4.775-3.75v-0.054
			c0-1.996-1.052-3.156-5.341-4.019c-4.532-0.918-6.367-2.456-6.367-5.315V7.895c0-2.806,2.563-4.964,6.07-4.964
			c2.752,0,4.559,0.756,6.475,2.293l-0.891,1.106c-1.781-1.538-3.56-2.131-5.637-2.131c-2.779,0-4.614,1.591-4.614,3.561v0.054
			c0,1.996,1.025,3.21,5.503,4.128c4.37,0.89,6.205,2.454,6.205,5.206v0.054c0,3.048-2.616,5.153-6.259,5.153
			C157.359,22.355,155.04,21.357,152.773,19.334z"/>
	</g>
</g>
</svg>
